<?xml version="1.0" encoding="UTF-8" standalone="no"?>
<svg
   xmlns:dc="http://purl.org/dc/elements/1.1/"
   xmlns:cc="http://creativecommons.org/ns#"
   xmlns:rdf="http://www.w3.org/1999/02/22-rdf-syntax-ns#"
   xmlns:svg="http://www.w3.org/2000/svg"
   xmlns="http://www.w3.org/2000/svg"
   xmlns:sodipodi="http://sodipodi.sourceforge.net/DTD/sodipodi-0.dtd"
   xmlns:inkscape="http://www.inkscape.org/namespaces/inkscape"
   version="1.0"
   width="16mm"
   height="8mm"
   viewBox="0 0 60.472414 30.236218"
   preserveAspectRatio="xMidYMid meet"
   id="svg52"
   sodipodi:docname="logo.svg"
   inkscape:version="1.0.1 (3bc2e813f5, 2020-09-07)">
  <defs
     id="defs56" />
  <sodipodi:namedview
     pagecolor="#ffffff"
     bordercolor="#666666"
     borderopacity="1"
     objecttolerance="10"
     gridtolerance="10"
     guidetolerance="10"
     inkscape:pageopacity="0"
     inkscape:pageshadow="2"
     inkscape:window-width="830"
     inkscape:window-height="715"
     id="namedview54"
     showgrid="false"
     units="mm"
     width="298mm"
     inkscape:zoom="8"
     inkscape:cx="29.478764"
     inkscape:cy="7.7018316"
     inkscape:window-x="2554"
     inkscape:window-y="296"
     inkscape:window-maximized="0"
     inkscape:current-layer="svg52" />
  <metadata
     id="metadata34">
Created by potrace 1.16, written by Peter Selinger 2001-2019
<rdf:RDF>
  <cc:Work
     rdf:about="">
    <dc:format>image/svg+xml</dc:format>
    <dc:type
       rdf:resource="http://purl.org/dc/dcmitype/StillImage" />
    <dc:title></dc:title>
  </cc:Work>
</rdf:RDF>
</metadata>
  <g
     transform="matrix(0.00620457,0,0,-0.00645034,-11.148619,33.553803)"
     fill="#000000"
     stroke="none"
     id="g50"
     style="fill:#4d4d4d">
    <path
       d="M 8830,2775 V 1590 h 245 245 v 1185 1185 h -245 -245 z"
       id="path36"
       style="fill:#4d4d4d" />
    <path
       d="m 8080,3941 c -82,-25 -148,-81 -177,-148 -17,-42 -17,-145 1,-187 22,-53 81,-112 139,-137 41,-18 69,-23 132,-23 124,1 204,45 250,137 31,64 34,161 6,223 -24,53 -93,111 -155,129 -52,16 -154,19 -196,6 z"
       id="path38"
       style="fill:#4d4d4d" />
    <path
       d="M 2170,2710 V 1590 h 255 255 v 455 455 h 465 465 v -455 -455 h 250 250 v 1120 1120 h -250 -250 v -445 -445 h -465 -465 v 445 445 h -255 -255 z"
       id="path40"
       style="fill:#4d4d4d" />
    <path
       d="m 5016,3219 c -176,-24 -302,-78 -401,-170 -114,-107 -161,-247 -137,-407 33,-211 148,-311 496,-432 175,-60 230,-94 247,-148 29,-100 -58,-163 -236,-170 -154,-7 -294,26 -440,102 -33,17 -63,32 -67,34 -5,2 -8,-87 -8,-197 v -200 l 70,-21 c 291,-87 662,-74 872,30 91,46 162,104 207,171 61,91 76,146 76,275 0,107 -1,112 -38,187 -26,53 -53,90 -90,122 -61,55 -212,130 -352,175 -195,64 -255,107 -255,185 0,57 27,89 98,115 50,19 71,21 172,17 126,-5 202,-22 299,-67 35,-17 65,-30 67,-30 2,0 4,85 4,189 v 189 l -27,7 c -173,44 -419,63 -557,44 z"
       id="path42"
       style="fill:#4d4d4d" />
    <path
       d="m 10294,3216 c -98,-19 -137,-32 -224,-77 -298,-154 -454,-482 -420,-877 27,-310 176,-535 425,-641 234,-99 657,-89 908,22 l 57,26 v 175 c 0,97 -3,176 -6,176 -3,0 -38,-16 -78,-35 -190,-93 -469,-111 -626,-39 -103,47 -171,137 -188,248 l -9,56 h 525 525 l -6,178 c -11,312 -61,455 -212,608 -79,80 -167,130 -287,164 -95,27 -285,35 -384,16 z m 282,-351 c 81,-40 127,-121 140,-251 l 7,-64 h -297 -298 l 7,33 c 14,67 48,145 83,192 89,118 228,152 358,90 z"
       id="path44"
       style="fill:#4d4d4d" />
    <path
       d="m 5962,2613 c 4,-560 5,-581 26,-658 72,-260 219,-383 483,-402 104,-7 208,13 300,59 59,30 173,130 217,193 l 21,30 1,-122 v -123 h 250 250 v 800 800 h -250 -249 l -3,-518 -3,-517 -33,-68 c -52,-104 -137,-157 -255,-157 -112,0 -198,58 -239,160 -22,54 -23,64 -26,578 l -3,522 h -245 -245 z"
       id="path46"
       style="fill:#4d4d4d" />
    <path
       d="m 7920,2390 v -800 h 245 245 v 800 800 h -245 -245 z"
       id="path48"
       style="fill:#4d4d4d" />
  </g>
</svg>
