<?xml version="1.0" encoding="utf-8"?>
<!-- Generator: Adobe Illustrator 19.2.0, SVG Export Plug-In . SVG Version: 6.00 Build 0)  -->
<svg version="1.1" id="Layer_1" xmlns="http://www.w3.org/2000/svg" xmlns:xlink="http://www.w3.org/1999/xlink" x="0px" y="0px"
	 viewBox="0 0 244 157.6" style="enable-background:new 0 0 244 157.6;" xml:space="preserve">
<style type="text/css">
	.st0{fill:#1C95BA;}
</style>
<title>logowhite</title>
<g id="Page-1">
	<g id="Artboard-2">
		<g id="Oval-1-Copy-_-Oval-1-Copy-_-Shape">
			<path id="Oval-1-Copy" class="st0" d="M53.6,112.8c-6.5,3.3-10.7,10-10.8,17.4c0,11,9.4,19.9,21.1,19.9S85,141.2,85,130.2
				c-0.1-7.5-4.4-14.2-11.1-17.5v17.5H53.6V112.8L53.6,112.8z"/>
			<path id="Oval-1-Copy-2" class="st0" d="M37.3,53c-3.3-6.5-10-10.7-17.4-10.8C8.9,42.2,0,51.6,0,63.3s8.9,21.1,19.9,21.1
				c7.5-0.1,14.2-4.4,17.5-11.1H19.9V53H37.3z"/>
			<path id="Shape" class="st0" d="M74.1,37.3c6.5-3.3,10.7-10,10.8-17.4C84.9,8.9,75.5,0,63.8,0S42.7,8.9,42.7,19.9
				c0.1,7.5,4.4,14.2,11.1,17.5V19.9h20.3L74.1,37.3L74.1,37.3z"/>
		</g>
		<path id="imperial-" class="st0" d="M112.3,31.8v-4h-4.8v4H112.3z M107.5,34.5v17.6h4.8V34.5H107.5z M116.3,34.5v17.6h4.8V41.9
			c-0.1-0.7,0.1-1.4,0.4-2.1c0.2-0.5,0.5-0.9,0.9-1.2c0.3-0.3,0.7-0.5,1.1-0.6c0.3-0.1,0.6-0.2,0.9-0.2c0.6-0.1,1.3,0.1,1.8,0.4
			c0.4,0.2,0.7,0.6,0.8,1c0.2,0.5,0.3,0.9,0.3,1.4v11.5h4.8v-9.8c0-0.5,0-1.1,0.1-1.6s0.2-1,0.5-1.4s0.6-0.7,1-1
			c0.5-0.3,1-0.4,1.6-0.4c0.5,0,1.1,0.1,1.6,0.3c0.4,0.2,0.7,0.5,0.9,0.9s0.3,0.9,0.4,1.4c0,0.5,0.1,1.1,0.1,1.7v10h4.8V40.3
			c0-1-0.2-2-0.5-2.9c-0.3-0.7-0.7-1.4-1.3-2c-0.6-0.5-1.3-0.9-2-1.1c-0.9-0.2-1.7-0.3-2.6-0.3c-1.1,0-2.2,0.3-3.2,0.9
			c-0.8,0.5-1.5,1.2-2.1,2c-0.4-1-1.2-1.8-2.1-2.3c-0.9-0.4-2-0.6-3-0.6c-1.1,0-2.1,0.2-3.1,0.7c-0.9,0.5-1.7,1.2-2.3,2.1h-0.1v-2.4
			L116.3,34.5C116.3,34.4,116.3,34.5,116.3,34.5z M155.8,48.9c-0.7,0-1.4-0.2-2-0.5c-0.5-0.3-1-0.7-1.3-1.2
			c-0.4-0.5-0.6-1.2-0.7-1.8c-0.1-0.7-0.2-1.4-0.2-2.1c0-0.7,0.1-1.4,0.2-2.1c0.1-0.6,0.3-1.3,0.7-1.8s0.8-0.9,1.3-1.3
			c0.6-0.3,1.3-0.5,2-0.5s1.4,0.2,2,0.5c0.5,0.3,1,0.8,1.3,1.3c0.4,0.5,0.6,1.2,0.7,1.8c0.1,0.7,0.2,1.4,0.2,2.1
			c0,0.7-0.1,1.4-0.2,2.1c-0.1,0.6-0.3,1.3-0.7,1.8c-0.3,0.5-0.8,0.9-1.3,1.2C157.1,48.7,156.4,48.9,155.8,48.9L155.8,48.9z
			 M146.9,34.5v23.7h4.8v-8.3h0.1c0.6,0.9,1.4,1.6,2.3,2c0.9,0.5,2,0.7,3,0.7c1.2,0,2.3-0.2,3.4-0.7c0.9-0.5,1.8-1.2,2.4-2
			c0.6-0.9,1.1-1.9,1.4-2.9c0.3-1.1,0.5-2.2,0.5-3.4s-0.2-2.4-0.5-3.6c-0.3-1.1-0.8-2.1-1.5-3s-1.5-1.6-2.5-2.1
			c-1.1-0.5-2.4-0.8-3.6-0.8c-1,0-2.1,0.2-3,0.6c-1,0.4-1.7,1.2-2.2,2.1h-0.1v-2.2L146.9,34.5L146.9,34.5L146.9,34.5z M179.5,41.4
			h-7.8c0-0.4,0.1-0.8,0.2-1.2s0.3-0.8,0.6-1.2s0.7-0.7,1.2-1c0.6-0.3,1.2-0.4,1.9-0.4c1-0.1,2,0.3,2.6,1
			C178.9,39.4,179.3,40.4,179.5,41.4L179.5,41.4z M171.7,44.5h12.7c0.1-1.3,0-2.6-0.3-3.9c-0.3-1.2-0.8-2.3-1.5-3.3
			s-1.6-1.8-2.7-2.3c-1.2-0.6-2.5-0.9-3.9-0.9c-1.3,0-2.5,0.2-3.7,0.7c-1.1,0.5-2,1.1-2.8,2c-0.8,0.8-1.4,1.8-1.8,2.9
			c-0.4,1.2-0.6,2.4-0.6,3.7s0.2,2.5,0.6,3.7c0.4,1.1,1,2.1,1.8,2.9c0.8,0.8,1.8,1.4,2.8,1.9c1.2,0.5,2.4,0.7,3.7,0.7
			c1.8,0,3.6-0.4,5.1-1.4c1.5-1.1,2.6-2.7,3.1-4.5H180c-0.3,0.6-0.7,1.2-1.3,1.5c-0.8,0.5-1.6,0.7-2.5,0.7c-1.1,0.1-2.3-0.3-3.1-1.1
			C172.1,47.2,171.8,46,171.7,44.5L171.7,44.5L171.7,44.5z M187.2,34.5v17.6h4.8v-7.9c0-0.7,0.1-1.5,0.2-2.2
			c0.1-0.6,0.4-1.3,0.8-1.8s0.9-0.9,1.5-1.2c0.7-0.3,1.4-0.4,2.2-0.4c0.3,0,0.6,0,0.9,0.1c0.3,0,0.6,0.1,0.8,0.1v-4.5
			c-0.4-0.1-0.7-0.2-1.1-0.2c-0.6,0-1.2,0.1-1.8,0.3c-0.5,0.2-1,0.4-1.4,0.7c-0.5,0.3-0.9,0.7-1.3,1.2s-0.7,1-0.9,1.5h-0.1v-3.3
			L187.2,34.5L187.2,34.5z M205.4,31.8v-4h-4.8v4H205.4z M200.6,34.5v17.6h4.8V34.5H200.6z M209,39.9c0.1-1,0.4-2,0.9-2.8
			c0.5-0.7,1.2-1.3,1.9-1.8c0.8-0.5,1.7-0.8,2.6-1c1-0.2,1.9-0.3,2.9-0.3c0.9,0,1.8,0.1,2.7,0.2c0.9,0.1,1.7,0.4,2.5,0.7
			c0.7,0.4,1.3,0.9,1.8,1.5c0.5,0.8,0.8,1.7,0.7,2.6v9.1c0,0.8,0,1.5,0.1,2.3c0,0.6,0.2,1.1,0.5,1.6h-4.9c-0.1-0.3-0.2-0.5-0.2-0.8
			s-0.1-0.6-0.1-0.9c-0.7,0.8-1.7,1.4-2.7,1.8c-1,0.3-2.1,0.5-3.2,0.5c-0.8,0-1.6-0.1-2.3-0.3s-1.4-0.5-1.9-1c-0.5-0.4-1-1-1.3-1.6
			c-0.3-0.7-0.5-1.5-0.5-2.3c0-0.9,0.2-1.7,0.5-2.5c0.3-0.6,0.8-1.1,1.4-1.5s1.2-0.7,1.9-0.9s1.4-0.3,2.2-0.5l2.1-0.3
			c0.7-0.1,1.3-0.2,1.9-0.3c0.5-0.1,0.9-0.3,1.3-0.6c0.3-0.3,0.5-0.7,0.4-1.1c0-0.4-0.1-0.8-0.3-1.2c-0.2-0.3-0.4-0.5-0.7-0.7
			s-0.6-0.3-1-0.3c-0.4-0.1-0.8-0.1-1.2-0.1c-0.8-0.1-1.6,0.2-2.2,0.6c-0.6,0.5-0.9,1.2-1,2L209,39.9L209,39.9L209,39.9z
			 M220.1,43.5c-0.2,0.2-0.5,0.3-0.8,0.4c-0.3,0.1-0.6,0.2-1,0.3s-0.7,0.1-1.1,0.2c-0.4,0-0.8,0.1-1.2,0.2l-1.1,0.3
			c-0.3,0.1-0.7,0.3-0.9,0.5c-0.3,0.2-0.5,0.4-0.6,0.7c-0.2,0.3-0.2,0.7-0.2,1.1c0,0.4,0.1,0.7,0.2,1.1c0.2,0.3,0.4,0.5,0.6,0.7
			c0.3,0.2,0.6,0.3,1,0.4c0.4,0.1,0.7,0.1,1.1,0.1c0.8,0,1.5-0.1,2.2-0.5c0.5-0.3,0.9-0.7,1.2-1.1c0.2-0.4,0.4-0.9,0.5-1.3
			c0.1-0.4,0.1-0.7,0.1-1.1C220.1,45.5,220.1,43.5,220.1,43.5z M228.8,27.8v24.3h4.8V27.8H228.8z M119.3,75.7h4.7c0-1-0.3-2-0.8-2.9
			c-0.5-0.8-1.1-1.5-1.9-2.1s-1.7-1-2.6-1.2c-1-0.3-2-0.4-3-0.4c-1.3,0-2.6,0.2-3.8,0.7c-1.1,0.4-2,1.1-2.8,2s-1.4,1.9-1.8,3
			c-0.4,1.2-0.6,2.5-0.6,3.8c0,1.2,0.2,2.4,0.6,3.6c0.4,1.1,1,2,1.8,2.8s1.8,1.4,2.8,1.9c1.1,0.5,2.4,0.7,3.6,0.7
			c2.1,0.1,4.1-0.6,5.7-1.8c1.6-1.3,2.5-3.2,2.7-5.3h-4.7c-0.1,1-0.5,1.9-1.2,2.6s-1.7,1-2.7,1c-0.7,0-1.3-0.2-1.9-0.5
			c-0.5-0.3-0.9-0.8-1.2-1.3c-0.3-0.6-0.5-1.2-0.7-1.8c-0.1-0.6-0.2-1.3-0.2-1.9c0-0.7,0.1-1.3,0.2-2c0.1-0.6,0.3-1.3,0.7-1.8
			c0.3-0.6,0.8-1,1.3-1.4c0.6-0.4,1.2-0.6,1.9-0.5C117.8,72.7,119,73.7,119.3,75.7L119.3,75.7L119.3,75.7z M131.1,78.3
			c0-0.7,0.1-1.4,0.2-2.1c0.1-0.6,0.3-1.3,0.7-1.8s0.8-0.9,1.3-1.3c0.6-0.3,1.3-0.5,2-0.5s1.4,0.2,2.1,0.5c0.5,0.3,1,0.8,1.3,1.3
			c0.4,0.5,0.6,1.2,0.7,1.8c0.3,1.4,0.3,2.8,0,4.2c-0.1,0.6-0.3,1.3-0.7,1.8c-0.3,0.5-0.8,1-1.3,1.3c-0.6,0.3-1.4,0.5-2.1,0.5
			s-1.4-0.1-2-0.5c-0.5-0.3-1-0.8-1.3-1.3c-0.4-0.5-0.6-1.2-0.7-1.8C131.2,79.7,131.1,79,131.1,78.3L131.1,78.3z M126.3,78.3
			c0,1.3,0.2,2.6,0.6,3.8c0.4,1.1,1,2.1,1.8,2.9c0.8,0.8,1.8,1.5,2.9,1.9c1.2,0.4,2.4,0.6,3.7,0.6s2.6-0.2,3.8-0.6
			c1.1-0.4,2.1-1,2.9-1.9c0.8-0.8,1.4-1.8,1.8-2.9c0.8-2.5,0.8-5.1,0-7.6c-0.4-1.1-1-2.1-1.8-2.9s-1.8-1.4-2.9-1.9
			c-1.2-0.5-2.5-0.7-3.8-0.7s-2.5,0.2-3.7,0.7c-1.1,0.5-2.1,1.1-2.9,1.9s-1.4,1.8-1.8,2.9C126.4,75.7,126.2,77,126.3,78.3
			L126.3,78.3z M147.8,62.8v24.3h4.8V62.8H147.8z M156.6,62.8v24.3h4.8V62.8H156.6z M177,76.4h-7.9c0-0.4,0.1-0.8,0.2-1.2
			c0.1-0.4,0.3-0.9,0.6-1.2c0.3-0.4,0.7-0.7,1.2-1c0.6-0.3,1.2-0.4,1.9-0.4c1-0.1,1.9,0.3,2.6,1C176.4,74.3,176.8,75.3,177,76.4
			L177,76.4z M169.2,79.5h12.7c0.1-1.3,0-2.6-0.3-3.9c-0.3-1.2-0.8-2.3-1.5-3.3s-1.6-1.8-2.7-2.3c-1.2-0.6-2.6-0.9-3.9-0.9
			s-2.5,0.2-3.7,0.7c-1.1,0.5-2,1.1-2.8,2c-0.8,0.8-1.4,1.8-1.8,2.9c-0.4,1.2-0.6,2.4-0.6,3.7c0,1.3,0.2,2.5,0.6,3.7
			c0.4,1.1,1,2.1,1.8,2.9s1.8,1.4,2.8,1.9c1.2,0.5,2.4,0.7,3.7,0.7c1.8,0,3.6-0.4,5.1-1.4c1.5-1.1,2.6-2.7,3.1-4.5h-4.2
			c-0.3,0.6-0.7,1.2-1.3,1.5c-0.7,0.5-1.6,0.7-2.5,0.7c-1.1,0.1-2.3-0.3-3.1-1.1C169.6,82.2,169.2,81,169.2,79.5L169.2,79.5
			L169.2,79.5z M192.9,83c-0.7,0-1.3-0.2-1.9-0.5c-0.5-0.3-0.9-0.7-1.2-1.2s-0.5-1.1-0.6-1.7s-0.2-1.3-0.2-1.9s0.1-1.3,0.2-1.9
			s0.4-1.1,0.7-1.6s0.7-0.8,1.2-1.1c0.6-0.3,1.2-0.4,1.8-0.4c0.7,0,1.4,0.1,2,0.4c0.5,0.3,0.9,0.7,1.3,1.2c0.3,0.5,0.5,1.1,0.7,1.7
			c0.1,0.7,0.2,1.4,0.2,2.1c0,0.6-0.1,1.2-0.3,1.8c-0.1,0.6-0.4,1.1-0.8,1.5C195.2,82.4,194.1,82.9,192.9,83L192.9,83L192.9,83z
			 M201.6,86V69.5H197v2.3h-0.1c-0.5-0.9-1.3-1.7-2.2-2.2c-0.9-0.4-2-0.6-3-0.6c-1.1,0-2.2,0.2-3.2,0.7c-0.9,0.5-1.7,1.1-2.4,1.9
			s-1.2,1.8-1.4,2.8c-0.3,1.1-0.5,2.2-0.5,3.3c0,1.1,0.1,2.3,0.4,3.4c0.2,1,0.7,2,1.3,2.8s1.4,1.4,2.3,1.9c1.1,0.5,2.2,0.7,3.4,0.7
			c1,0,2.1-0.2,3-0.7c1-0.4,1.8-1.1,2.2-2.1h0.1V86c0,1.1-0.3,2.2-0.9,3.1c-0.7,0.9-1.9,1.3-3,1.2c-0.8,0-1.6-0.2-2.3-0.5
			c-0.7-0.4-1.2-1.1-1.3-1.9h-4.7c0,0.9,0.3,1.8,0.8,2.6c0.5,0.7,1.1,1.3,1.8,1.8s1.5,0.8,2.4,1s1.7,0.3,2.6,0.3
			c1.6,0,3.3-0.2,4.8-0.8c1.1-0.4,2-1.1,2.8-2c0.6-0.7,1-1.6,1.2-2.5C201.4,87.6,201.6,86.8,201.6,86L201.6,86L201.6,86z
			 M217.3,76.4h-7.9c0-0.4,0.1-0.8,0.2-1.2c0.1-0.4,0.3-0.9,0.6-1.2c0.3-0.4,0.7-0.7,1.2-1c0.6-0.3,1.2-0.4,1.9-0.4
			c1-0.1,2,0.3,2.6,1C216.7,74.3,217.1,75.3,217.3,76.4L217.3,76.4z M209.5,79.5h12.7c0.1-1.3,0-2.6-0.3-3.9
			c-0.3-1.2-0.8-2.3-1.5-3.3s-1.6-1.8-2.7-2.3c-1.2-0.6-2.5-0.9-3.9-0.9c-1.3,0-2.5,0.2-3.7,0.7c-1.1,0.5-2,1.1-2.8,2
			c-0.8,0.8-1.4,1.8-1.8,2.9c-0.4,1.2-0.6,2.4-0.6,3.7c0,1.3,0.2,2.5,0.6,3.7c0.4,1.1,1,2.1,1.8,2.9s1.8,1.4,2.8,1.9
			c1.2,0.4,2.4,0.7,3.7,0.7c1.8,0,3.6-0.4,5.1-1.4c1.5-1.1,2.6-2.7,3.1-4.5h-4.2c-0.3,0.6-0.7,1.2-1.3,1.5c-0.8,0.5-1.6,0.7-2.5,0.7
			c-1.1,0.1-2.3-0.3-3.1-1.1C209.9,82.2,209.5,81,209.5,79.5L209.5,79.5L209.5,79.5z M119.3,110.7h4.7c0-1-0.3-2-0.8-2.9
			c-0.5-0.8-1.1-1.5-1.9-2.1s-1.7-1-2.6-1.2c-1-0.3-2-0.4-3-0.4c-1.3,0-2.6,0.2-3.8,0.7c-1.1,0.4-2,1.1-2.8,2s-1.4,1.9-1.8,3
			c-0.4,1.2-0.6,2.5-0.6,3.8c0,1.2,0.2,2.4,0.6,3.6c0.4,1.1,1,2,1.8,2.8s1.8,1.4,2.8,1.9c1.1,0.5,2.4,0.7,3.6,0.7
			c2.1,0.1,4.1-0.6,5.7-1.8c1.6-1.3,2.5-3.2,2.7-5.3h-4.7c-0.1,1-0.5,1.9-1.2,2.6s-1.7,1-2.7,1c-0.7,0-1.3-0.2-1.9-0.5
			c-0.5-0.3-0.9-0.8-1.2-1.3c-0.3-0.6-0.5-1.2-0.7-1.8c-0.3-1.3-0.3-2.6,0-3.9c0.1-0.6,0.3-1.3,0.7-1.8c0.3-0.6,0.8-1,1.3-1.4
			c0.6-0.4,1.2-0.6,1.9-0.5C117.8,107.7,119,108.7,119.3,110.7L119.3,110.7L119.3,110.7z M126.9,97.8v24.3h4.8v-9.2
			c-0.1-1.4,0.2-2.7,0.9-3.9c0.7-0.9,1.8-1.3,2.9-1.2c0.9-0.1,1.9,0.3,2.4,1.1c0.5,1,0.7,2.1,0.7,3.2v9.9h4.8v-10.8c0-1-0.1-2-0.3-3
			c-0.1-0.8-0.5-1.6-1-2.3c-0.5-0.7-1.2-1.2-2-1.5c-1-0.4-2.1-0.6-3.2-0.5c-1,0-1.9,0.2-2.8,0.7c-1,0.5-1.8,1.3-2.3,2.2h-0.1v-9.1
			h-4.8L126.9,97.8L126.9,97.8z M147,104.5v17.6h4.8v-7.9c0-0.7,0.1-1.5,0.2-2.2c0.1-0.6,0.4-1.3,0.8-1.8s0.9-0.9,1.5-1.2
			c0.7-0.3,1.4-0.4,2.2-0.4c0.3,0,0.6,0,0.9,0.1s0.5,0.1,0.8,0.1v-4.5c-0.4-0.1-0.7-0.2-1.1-0.2c-0.6,0-1.2,0.1-1.8,0.3
			c-0.6,0.2-1.1,0.4-1.6,0.8c-0.5,0.3-0.9,0.7-1.3,1.2s-0.7,1-0.9,1.5h-0.1v-3.3L147,104.5L147,104.5L147,104.5z M165.2,101.8v-4
			h-4.8v4H165.2z M160.4,104.5v17.6h4.8v-17.6H160.4z M172.8,116.4h-4.6c0,1,0.2,2,0.8,2.9c0.5,0.8,1.1,1.4,1.9,1.9s1.7,0.8,2.6,1
			c1,0.2,2,0.3,3,0.3s1.9-0.1,2.9-0.3c0.9-0.2,1.8-0.5,2.6-1c1.6-1,2.6-2.9,2.5-4.8c0-0.7-0.2-1.4-0.5-2.1c-0.3-0.6-0.7-1.1-1.3-1.4
			c-0.5-0.4-1.1-0.7-1.8-0.9l-2.1-0.6c-0.7-0.2-1.3-0.3-2-0.4c-0.6-0.1-1.2-0.3-1.8-0.5c-0.4-0.1-0.9-0.4-1.2-0.7
			c-0.3-0.3-0.5-0.7-0.5-1.1c0-0.3,0.1-0.7,0.3-0.9c0.2-0.2,0.4-0.4,0.7-0.5s0.6-0.2,0.9-0.2s0.6-0.1,0.9-0.1c0.8,0,1.5,0.2,2.2,0.5
			c0.7,0.4,1.1,1.1,1.1,1.9h4.6c-0.1-0.9-0.3-1.9-0.8-2.7c-0.4-0.7-1.1-1.3-1.8-1.7c-0.8-0.4-1.6-0.7-2.4-0.9
			c-1.8-0.4-3.8-0.4-5.6,0c-0.8,0.2-1.6,0.5-2.4,0.9c-0.7,0.4-1.3,1-1.8,1.7c-0.5,0.8-0.8,1.8-0.7,2.8c0,0.7,0.2,1.4,0.5,2
			s0.7,1,1.3,1.3s1.2,0.6,1.8,0.8l2.1,0.6c1.4,0.3,2.7,0.6,4,1.1c0.8,0.1,1.4,0.8,1.4,1.6c0,0.4-0.1,0.8-0.3,1.1
			c-0.2,0.3-0.5,0.5-0.8,0.7s-0.6,0.3-1,0.4s-0.7,0.1-1.1,0.1c-0.5,0-0.9-0.1-1.4-0.2c-0.4-0.1-0.8-0.3-1.2-0.5
			c-0.3-0.2-0.6-0.5-0.8-0.9C172.8,117.2,172.8,116.8,172.8,116.4L172.8,116.4L172.8,116.4z M193.4,104.5v-5.3h-4.8v5.3h-2.9v3.2
			h2.9v10.4c-0.1,0.7,0.1,1.4,0.4,2.1c0.3,0.5,0.7,1,1.2,1.3c0.6,0.3,1.2,0.5,1.8,0.6c0.7,0.1,1.4,0.2,2.1,0.2h1.5
			c0.5,0,1-0.1,1.4-0.1v-3.7c-0.2,0-0.5,0.1-0.7,0.1h-0.8c-0.6,0.1-1.1,0-1.6-0.4c-0.3-0.5-0.5-1-0.4-1.6v-8.7h3.5v-3.2h-3.6
			L193.4,104.5L193.4,104.5z M204.2,101.8v-4h-4.8v4H204.2z M199.4,104.5v17.6h4.8v-17.6H199.4z M207.8,109.9c0.1-1,0.4-2,0.9-2.8
			c0.5-0.7,1.2-1.3,1.9-1.8c0.8-0.5,1.7-0.8,2.6-1c1-0.2,1.9-0.3,2.9-0.3c0.9,0,1.8,0.1,2.7,0.2s1.7,0.4,2.5,0.7
			c0.7,0.4,1.3,0.9,1.8,1.5c0.5,0.8,0.8,1.7,0.7,2.6v9.1c0,0.8,0,1.5,0.1,2.3c0,0.6,0.2,1.1,0.5,1.6h-4.9c-0.1-0.3-0.2-0.5-0.2-0.8
			c-0.1-0.3-0.1-0.6-0.1-0.9c-0.8,0.7-1.7,1.3-2.7,1.7c-1,0.3-2.1,0.5-3.2,0.5c-0.8,0-1.6-0.1-2.3-0.3c-0.7-0.2-1.4-0.5-1.9-1
			c-0.5-0.4-1-1-1.3-1.6c-0.3-0.7-0.5-1.5-0.5-2.3c0-0.9,0.2-1.7,0.5-2.5c0.3-0.6,0.8-1.1,1.4-1.5s1.2-0.7,1.9-0.9
			c0.7-0.2,1.4-0.3,2.2-0.5l2.1-0.3c0.7-0.1,1.3-0.2,1.9-0.3c0.5-0.1,0.9-0.3,1.3-0.6c0.3-0.3,0.5-0.7,0.4-1.1
			c0-0.4-0.1-0.8-0.3-1.2c-0.2-0.3-0.4-0.5-0.7-0.7s-0.6-0.3-1-0.3c-0.4-0.1-0.8-0.1-1.2-0.1c-0.8-0.1-1.6,0.2-2.2,0.6
			c-0.6,0.5-0.9,1.2-1,2L207.8,109.9L207.8,109.9z M219,113.5c-0.2,0.2-0.5,0.3-0.8,0.4s-0.6,0.2-1,0.3c-0.4,0.1-0.7,0.1-1.1,0.2
			c-0.4,0-0.8,0.1-1.2,0.2l-1.1,0.3c-0.3,0.1-0.7,0.3-0.9,0.5c-0.3,0.2-0.5,0.4-0.6,0.7c-0.2,0.3-0.2,0.7-0.2,1.1s0.1,0.7,0.2,1.1
			c0.2,0.3,0.4,0.5,0.6,0.7c0.3,0.2,0.6,0.3,1,0.4s0.7,0.1,1.1,0.1c0.8,0,1.5-0.1,2.2-0.5c0.5-0.3,0.9-0.7,1.2-1.1s0.4-0.8,0.5-1.3
			c0.1-0.4,0.1-0.7,0.1-1.1C219,115.5,219,113.5,219,113.5z M227.5,104.5v17.6h4.8v-9.2c-0.1-1.4,0.2-2.7,0.9-3.9
			c0.7-0.9,1.8-1.3,2.9-1.2c0.9-0.1,1.9,0.3,2.4,1.1c0.5,1,0.7,2.1,0.7,3.2v9.9h4.8v-10.8c0-1-0.1-2-0.3-3c-0.1-0.8-0.5-1.6-1-2.3
			c-0.5-0.7-1.2-1.2-2-1.5c-1-0.4-2.1-0.6-3.2-0.5c-1,0-2.1,0.2-3,0.7c-1,0.5-1.8,1.2-2.4,2.2H232v-2.4h-4.5V104.5L227.5,104.5z
			 M123.8,157.1v-17.6H119v9.2c0.1,1.4-0.2,2.7-0.9,3.9c-0.7,0.9-1.8,1.3-2.9,1.2c-0.9,0.1-1.9-0.3-2.4-1.1c-0.5-1-0.8-2.1-0.7-3.2
			v-9.9h-4.8v10.8c0,1,0.1,2,0.3,3c0.1,0.8,0.5,1.6,1,2.3s1.2,1.1,2,1.4c1,0.4,2.1,0.5,3.2,0.5c1,0,2.1-0.2,3-0.7
			c1-0.5,1.8-1.2,2.4-2.2h0.1v2.4L123.8,157.1L123.8,157.1z M127.5,139.5v17.6h4.8v-9.2c-0.1-1.4,0.2-2.7,0.9-3.9
			c0.7-0.9,1.8-1.3,2.9-1.2c0.9-0.1,1.9,0.3,2.4,1.1c0.5,1,0.7,2.1,0.7,3.2v9.9h4.8v-10.8c0-1-0.1-2-0.3-3c-0.1-0.8-0.5-1.6-1-2.3
			s-1.2-1.2-2-1.5c-1-0.4-2.1-0.6-3.2-0.5c-1,0-2.1,0.2-3,0.7c-1,0.5-1.8,1.2-2.4,2.2H132v-2.4L127.5,139.5L127.5,139.5L127.5,139.5
			z M152.6,136.8v-4h-4.8v4H152.6z M147.8,139.5v17.6h4.8v-17.6H147.8z M160.6,148.3c0-0.7,0.1-1.4,0.2-2.1c0.1-0.6,0.3-1.3,0.7-1.8
			s0.8-0.9,1.3-1.3c0.6-0.3,1.3-0.5,2-0.5s1.4,0.2,2.1,0.5c0.5,0.3,1,0.8,1.3,1.3c0.4,0.5,0.6,1.2,0.7,1.8c0.3,1.4,0.3,2.8,0,4.2
			c-0.1,0.6-0.3,1.3-0.7,1.8c-0.3,0.5-0.8,1-1.3,1.3c-0.6,0.3-1.4,0.5-2.1,0.5s-1.4-0.2-2-0.5c-0.5-0.3-1-0.8-1.3-1.3
			c-0.4-0.5-0.6-1.2-0.7-1.8C160.7,149.7,160.7,149,160.6,148.3L160.6,148.3L160.6,148.3z M155.8,148.3c0,1.3,0.2,2.6,0.6,3.8
			c0.4,1.1,1,2.1,1.8,2.9s1.8,1.5,2.9,1.9c1.2,0.4,2.4,0.6,3.7,0.6s2.6-0.2,3.8-0.6c1.1-0.4,2.1-1,2.9-1.9c0.8-0.8,1.4-1.8,1.8-2.9
			c0.8-2.5,0.8-5.1,0-7.6c-0.4-1.1-1-2.1-1.8-2.9c-0.8-0.8-1.8-1.4-2.9-1.9c-1.2-0.5-2.5-0.7-3.8-0.7s-2.5,0.2-3.7,0.7
			c-1.1,0.5-2.1,1.1-2.9,1.9s-1.4,1.8-1.8,2.9C156,145.7,155.8,147,155.8,148.3L155.8,148.3z M177.1,139.5v17.6h4.8v-9.2
			c-0.1-1.4,0.2-2.7,0.9-3.9c0.7-0.9,1.8-1.3,2.9-1.2c0.9-0.1,1.9,0.3,2.4,1.1c0.5,1,0.7,2.1,0.7,3.2v9.9h4.8v-10.8c0-1-0.1-2-0.3-3
			c-0.1-0.8-0.5-1.6-1-2.3s-1.2-1.2-2-1.5c-1-0.4-2.1-0.6-3.2-0.5c-1,0-2.1,0.2-3,0.7c-1,0.5-1.8,1.2-2.4,2.2h-0.1v-2.4L177.1,139.5
			L177.1,139.5L177.1,139.5z"/>
	</g>
</g>
</svg>
