<svg xmlns="http://www.w3.org/2000/svg" fill="none" viewBox="0 0 769.18 162">
<path d="M414.027 151.799V161.998H483.998V116.001H473.803V151.799H414.027ZM414.027 0V10.199H473.803V45.9994H483.998V0H414.027ZM377.943 78.9004V55.2013H393.937C401.734 55.2013 404.533 57.8006 404.533 64.9017V69.1008C404.533 76.4003 401.833 78.9004 393.937 78.9004H377.943ZM403.331 83.0996C410.628 81.1997 415.725 74.3988 415.725 66.3006C415.725 61.2011 413.727 56.6002 409.928 52.8996C405.131 48.2987 398.732 45.9994 390.436 45.9994H367.946V115.998H377.943V88.0998H392.938C400.633 88.0998 403.733 91.2994 403.733 99.3008V116.001H413.927V100.901C413.927 89.9005 411.329 85.7014 403.331 84.5009V83.0996ZM319.168 85.3988H349.956V76.1994H319.168V55.1988H352.954V45.9994H308.971V115.998H354.454V106.799H319.168V85.3988ZM285.68 89.0994V93.8988C285.68 103.999 281.981 107.3 272.686 107.3H270.487C261.19 107.3 256.692 104.299 256.692 90.3991V71.5985C256.692 57.5997 261.391 54.6978 270.686 54.6978H272.684C281.781 54.6978 284.679 58.0983 284.778 67.4986H295.774C294.775 53.6983 285.579 44.9999 271.784 44.9999C265.087 44.9999 259.489 47.1007 255.292 51.0989C248.994 56.9995 245.496 67 245.496 80.9988C245.496 94.499 248.496 104.5 254.692 110.698C258.889 114.798 264.688 116.998 270.386 116.998C276.383 116.998 281.882 114.597 284.679 109.398H286.077V115.998H295.273V79.9H268.184V89.0994H285.68ZM197.519 55.1988H208.415C218.712 55.1988 224.31 57.7982 224.31 71.7994V90.1982C224.31 104.197 218.712 106.799 208.415 106.799H197.519V55.1988ZM209.313 116.001C228.406 116.001 235.502 101.501 235.502 81.0012C235.502 60.2015 227.905 46.0019 209.112 46.0019H187.52V116.001H209.313ZM139.243 85.3988H170.031V76.1994H139.243V55.1988H173.028V45.9994H129.045V115.998H174.528V106.799H139.243V85.3988ZM80.2675 45.9994H70.0726V115.998H116.054V106.799H80.2675V45.9994ZM0 116.001V162H69.971V151.799H10.1949V116.001H0ZM0 0V45.9994H10.1949V10.199H69.971V0H0Z" fill="black"/>
<path d="M565.5 44H541V114H565.5C579.4 114 589.7 105.6 589.7 94.3C589.7 86.4 584.8 79.9 577.3 78.1V76.7C583.4 74.9 587.4 69.2 587.4 62.5C587.4 57.2 584.9 52.5 580.7 49.1C576.8 45.9 571.5 44 565.5 44ZM551 104.8V82.3H567.6C575.9 82.3 578.5 84.8 578.5 91.5V95.4C578.5 102.1 575.9 104.8 567.6 104.8H551ZM551 73.1V53.2H566.2C573.7 53.2 576.2 55.7 576.2 61.6V65C576.2 70.9 573.7 73.1 566.2 73.1H551ZM603.461 44V114H649.461V104.8H613.661V44H603.461ZM684.022 115C700.622 115 709.922 102 709.922 79C709.922 55.7 700.622 43 684.022 43C667.322 43 657.922 55.7 657.922 79C657.922 101.9 667.422 115 684.022 115ZM669.122 88.4V69.6C669.122 55.6 673.622 52.7 682.922 52.7H684.922C694.222 52.7 698.722 55.6 698.722 69.6V88.4C698.722 102.4 694.222 105.3 684.922 105.3H682.922C673.622 105.3 669.122 102.3 669.122 88.4ZM743.783 115C749.783 115 755.283 112.6 758.083 107.4H759.483V114H768.683V77.9H741.583V87.1H759.083V91.9C759.083 102 755.383 105.3 746.083 105.3H743.883C734.583 105.3 730.083 102.3 730.083 88.4V69.6C730.083 55.6 734.783 52.7 744.083 52.7H746.083C755.183 52.7 758.083 56.1 758.183 65.5H769.183C768.183 51.7 758.983 43 745.183 43C738.483 43 732.883 45.1 728.683 49.1C722.383 55 718.883 65 718.883 79C718.883 92.5 721.883 102.5 728.083 108.7C732.283 112.8 738.083 115 743.783 115Z" fill="black"/>
</svg>