<?xml version="1.0" standalone="no"?>
<!DOCTYPE svg PUBLIC "-//W3C//DTD SVG 20010904//EN"
 "http://www.w3.org/TR/2001/REC-SVG-20010904/DTD/svg10.dtd">
<svg version="1.0" xmlns="http://www.w3.org/2000/svg"
 width="1347.000000pt" height="635.000000pt" viewBox="0 0 1347.000000 635.000000"
 preserveAspectRatio="xMidYMid meet">
<metadata>
Created by potrace 1.16, written by Peter Selinger 2001-2019
</metadata>
<g transform="translate(0.000000,635.000000) scale(0.100000,-0.100000)"
fill="#000000" stroke="none">
<path d="M8830 2775 l0 -1185 245 0 245 0 0 1185 0 1185 -245 0 -245 0 0
-1185z"/>
<path d="M8080 3941 c-82 -25 -148 -81 -177 -148 -17 -42 -17 -145 1 -187 22
-53 81 -112 139 -137 41 -18 69 -23 132 -23 124 1 204 45 250 137 31 64 34
161 6 223 -24 53 -93 111 -155 129 -52 16 -154 19 -196 6z"/>
<path d="M2170 2710 l0 -1120 255 0 255 0 0 455 0 455 465 0 465 0 0 -455 0
-455 250 0 250 0 0 1120 0 1120 -250 0 -250 0 0 -445 0 -445 -465 0 -465 0 0
445 0 445 -255 0 -255 0 0 -1120z"/>
<path d="M5016 3219 c-176 -24 -302 -78 -401 -170 -114 -107 -161 -247 -137
-407 33 -211 148 -311 496 -432 175 -60 230 -94 247 -148 29 -100 -58 -163
-236 -170 -154 -7 -294 26 -440 102 -33 17 -63 32 -67 34 -5 2 -8 -87 -8 -197
l0 -200 70 -21 c291 -87 662 -74 872 30 91 46 162 104 207 171 61 91 76 146
76 275 0 107 -1 112 -38 187 -26 53 -53 90 -90 122 -61 55 -212 130 -352 175
-195 64 -255 107 -255 185 0 57 27 89 98 115 50 19 71 21 172 17 126 -5 202
-22 299 -67 35 -17 65 -30 67 -30 2 0 4 85 4 189 l0 189 -27 7 c-173 44 -419
63 -557 44z"/>
<path d="M10294 3216 c-98 -19 -137 -32 -224 -77 -298 -154 -454 -482 -420
-877 27 -310 176 -535 425 -641 234 -99 657 -89 908 22 l57 26 0 175 c0 97 -3
176 -6 176 -3 0 -38 -16 -78 -35 -190 -93 -469 -111 -626 -39 -103 47 -171
137 -188 248 l-9 56 525 0 525 0 -6 178 c-11 312 -61 455 -212 608 -79 80
-167 130 -287 164 -95 27 -285 35 -384 16z m282 -351 c81 -40 127 -121 140
-251 l7 -64 -297 0 -298 0 7 33 c14 67 48 145 83 192 89 118 228 152 358 90z"/>
<path d="M5962 2613 c4 -560 5 -581 26 -658 72 -260 219 -383 483 -402 104 -7
208 13 300 59 59 30 173 130 217 193 l21 30 1 -122 0 -123 250 0 250 0 0 800
0 800 -250 0 -249 0 -3 -518 -3 -517 -33 -68 c-52 -104 -137 -157 -255 -157
-112 0 -198 58 -239 160 -22 54 -23 64 -26 578 l-3 522 -245 0 -245 0 3 -577z"/>
<path d="M7920 2390 l0 -800 245 0 245 0 0 800 0 800 -245 0 -245 0 0 -800z"/>
</g>
</svg>
