<?xml version="1.0" encoding="utf-8"?>
<!-- Generator: Adobe Illustrator 19.2.0, SVG Export Plug-In . SVG Version: 6.00 Build 0)  -->
<svg version="1.1" id="Layer_1" xmlns="http://www.w3.org/2000/svg" xmlns:xlink="http://www.w3.org/1999/xlink" x="0px" y="0px"
	 viewBox="0 0 456.7 208.8" style="enable-background:new 0 0 456.7 208.8;" xml:space="preserve">
<title>imperialcollegeunion</title>
<g>
	<path d="M115.4,75.9c0,2.3-1.8,4.1-4.1,4.1s-4.1-1.8-4.1-4.1l0,0V37.1c0-2.3,1.8-4.1,4.1-4.1s4.1,1.8,4.1,4.1V75.9z"/>
	<path d="M157.7,50.2c0-6.6-3.9-10.6-10.6-10.6s-10.5,4-10.5,10.6v25.7c0,2.3-1.8,4.1-4.1,4.1s-4.1-1.8-4.1-4.1l0,0V37.1
		c0-2.3,1.8-4.1,4.1-4.1s4.1,1.8,4.1,4.1v1.4l0.2,0.2c1.9-2.3,5-5.6,12.4-5.6c4.8,0,9.8,1.9,13.5,7.8c3.6-4.8,8-7.8,15.1-7.8
		c7.6,0,17.1,4.5,17.1,17.4V76c0,2.3-1.8,4.1-4.1,4.1s-4.1-1.8-4.1-4.1l0,0V50.2c0-6.6-3.9-10.6-10.6-10.6s-10.5,4-10.5,10.6v25.7
		c0,2.3-1.8,4.1-4.1,4.1s-4.1-1.8-4.1-4.1l0,0L157.7,50.2L157.7,50.2z"/>
	<path d="M208.4,37.1c0-2.3,1.8-4.1,4.1-4.1s4.1,1.8,4.1,4.1v2.2h0.2c2.3-4.1,6.7-6.3,13.2-6.3c13.3,0,21,11.3,21,23.5
		S243.3,80,230,80c-5.1,0.1-10-2.2-13.2-6.2h-0.2v16.7c0,2.3-1.8,4.1-4.1,4.1s-4.1-1.8-4.1-4.1V37.1z M229.3,73.4
		c10,0,13.5-9.2,13.5-16.9s-3.5-16.9-13.5-16.9s-13.5,9.2-13.5,16.9S219.3,73.4,229.3,73.4L229.3,73.4z"/>
	<path d="M267.1,59.4c0,7.9,5.4,14,14.5,14c10.9,0,13.6-6.2,16.7-6.2c1.7,0.1,3.1,1.5,3,3.2c0,0.1,0,0.1,0,0.2
		c0,3.7-10.1,9.4-19.7,9.4C265.8,80,259,68.7,259,56.5c0-12.4,8.3-23.5,22.1-23.5c13.4,0,21.2,11.3,21.2,22.4c0,2.7-1,4-4.5,4H267.1
		L267.1,59.4z M294.1,53.7c0-6.6-4.1-14.2-13.1-14.2c-10.1-0.3-13.7,7.2-14,14.2H294.1L294.1,53.7z"/>
	<path d="M312.4,37.1c0-2.3,1.8-4.1,4.1-4.1c2.3,0,4.1,1.8,4.1,4.1V41h0.2c1.9-3.5,6.4-7.9,11.1-7.9c2.9,0,4.5,1.7,4.5,3.9
		s-1.7,3.5-5.1,4.1c-4.8,0.8-10.7,4.1-10.7,13v21.8c0,2.3-1.8,4.1-4.1,4.1c-2.3,0-4.1-1.8-4.1-4.1l0,0V37.1z"/>
	<path d="M348,17.5c2.7-0.1,4.9,2,5,4.6l0,0c0,2.8-2.2,5-5,5s-5-2.2-5-5C343.1,19.5,345.3,17.4,348,17.5L348,17.5z M352,75.9
		c0,2.3-1.8,4.1-4.1,4.1c-2.3,0-4.1-1.8-4.1-4.1l0,0V37.1c0-2.3,1.8-4.1,4.1-4.1c2.3,0,4.1,1.8,4.1,4.1V75.9z"/>
	<path d="M405.9,76.3c0,2-1.6,3.7-3.6,3.7c-0.1,0-0.1,0-0.2,0c-2,0.1-3.7-1.4-3.8-3.4c0-0.1,0-0.2,0-0.3v-3.2h-0.2
		c-3.1,4.4-8.1,7-13.5,6.9C370.8,80,363,68.7,363,56.5S370.8,33,384.7,33c5.7,0,9.6,2.2,13.5,6.1h0.2v-2.4c-0.1-2,1.5-3.7,3.5-3.7
		c0.1,0,0.2,0,0.3,0c2-0.1,3.7,1.5,3.8,3.5c0,0.1,0,0.1,0,0.2L405.9,76.3L405.9,76.3z M384.7,73.4c10,0,13.5-9.2,13.5-16.9
		s-3.5-16.9-13.5-16.9s-13.5,9.2-13.5,16.9S374.7,73.4,384.7,73.4L384.7,73.4z"/>
	<path d="M427.1,75.9c0,2.3-1.8,4.1-4.1,4.1c-2.3,0-4.1-1.8-4.1-4.1l0,0v-59c0-2.3,1.8-4.1,4.1-4.1c2.3,0,4.1,1.8,4.1,4.1V75.9z"/>
	<path d="M194,101.6c8.3,0,13.3,2.7,13.3,5.8c-0.1,1.8-1.5,3.2-3.3,3.2c-3.1,0-4.4-2.4-9.9-2.4c-10.1,0-14.1,9.2-14.1,16.9
		s4,16.9,14.1,16.9c5.8,0,7.2-2.6,9.8-2.6c1.7-0.1,3.1,1.2,3.2,2.8c0,0.1,0,0.2,0,0.4c0,2.9-4.5,6-13,6c-15,0-22.2-11.3-22.2-23.5
		S179,101.6,194,101.6z"/>
	<path d="M236.9,101.6c13.9,0,21.7,11.3,21.7,23.5s-7.8,23.5-21.7,23.5s-21.7-11.3-21.7-23.5S223,101.6,236.9,101.6z M236.9,142
		c10,0,13.5-9.1,13.5-16.9s-3.5-16.9-13.5-16.9s-13.5,9.2-13.5,16.9S226.9,142,236.9,142L236.9,142z"/>
	<path d="M277.7,144.5c0,2.3-1.8,4.1-4.1,4.1c-2.3,0-4.1-1.8-4.1-4.1v-52c0-2.3,1.8-4.1,4.1-4.1c2.3,0,4.1,1.8,4.1,4.1V144.5
		L277.7,144.5z"/>
	<path d="M298.9,144.5c0,2.3-1.8,4.1-4.1,4.1c-2.3,0-4.1-1.8-4.1-4.1v-52c0-2.3,1.8-4.1,4.1-4.1c2.3,0,4.1,1.8,4.1,4.1V144.5
		L298.9,144.5z"/>
	<path d="M317.2,128c0,7.9,5.4,14,14.5,14c10.8,0,13.6-6.2,16.7-6.2c1.7,0.1,3.1,1.5,3,3.2c0,0.1,0,0.1,0,0.2
		c0,3.7-10.1,9.4-19.7,9.4c-15.8,0-22.6-11.3-22.6-23.5c0-12.4,8.3-23.5,22.1-23.5c13.4,0,21.2,11.3,21.2,22.4c0,2.7-1,4.1-4.5,4.1
		L317.2,128L317.2,128z M344.2,122.3c0-6.6-4.1-14.2-13.1-14.2c-10.1-0.3-13.7,7.2-14,14.2H344.2z"/>
	<path d="M402.9,144.7c0,13.6-8.9,21.9-22.2,21.9c-8.4,0-18.9-4.5-18.9-8.4c-0.1-1.8,1.2-3.4,3-3.5c0.1,0,0.3,0,0.4,0
		c3.7,0,7.3,5.4,16.1,5.4c10.4,0,13.4-7.6,13.4-14.2v-4h-0.2c-2.7,4.3-7.5,6.8-12.6,6.6c-13.9,0-21.7-11.3-21.7-23.5
		s7.8-23.5,21.7-23.5c4.8,0.1,9.3,2.2,12.5,5.8h0.2v-2.1c0-2.7,2.1-3.7,4.4-3.7c2-0.1,3.7,1.5,3.8,3.5c0,0.1,0,0.1,0,0.2
		L402.9,144.7L402.9,144.7z M382,142c10,0,13.5-9.1,13.5-16.9s-3.5-16.9-13.5-16.9s-13.5,9.2-13.5,16.9S372,142,382,142z"/>
	<path d="M421.5,128c0,7.9,5.4,14,14.5,14c10.8,0,13.6-6.2,16.7-6.2c1.7,0.1,3,1.5,3,3.2v0.1c0,3.7-10.1,9.4-19.7,9.4
		c-15.8,0-22.6-11.3-22.6-23.5c0-12.4,8.3-23.5,22.1-23.5c13.5,0,21.2,11.3,21.2,22.4c0,2.7-1,4.1-4.5,4.1H421.5L421.5,128z
		 M448.5,122.3c0-6.6-4.1-14.2-13.1-14.2c-10.1-0.3-13.7,7.2-14,14.2H448.5L448.5,122.3z"/>
	<path d="M106.4,169c0-4.1,2.6-6.8,6.3-6.8s6.3,2.7,6.3,6.8v21.8c0,5.1,4,7.9,8.2,7.9c4.2,0,8.2-2.8,8.2-7.9V169
		c0-4.1,2.6-6.8,6.4-6.8s6.3,2.7,6.3,6.8v22c0,10.8-7.5,17.8-20.9,17.8s-20.9-6.9-20.9-17.8C106.4,191,106.4,169,106.4,169z"/>
	<path d="M155.8,169c0-4.1,2.6-6.8,6.3-6.8c3.3,0,5.4,1.7,5.8,4.5c2.5-3.3,6.2-5,12.2-5c9.9,0,17.4,6.1,17.4,16.4v23.4
		c0,4.1-2.6,6.8-6.3,6.8s-6.3-2.7-6.3-6.8v-21.3c0-5.7-3.7-8.4-8.3-8.4c-5.2,0-8.1,3.6-8.1,8.4v21.2c0,4.1-2.6,6.8-6.3,6.8
		s-6.3-2.7-6.3-6.8L155.8,169L155.8,169z"/>
	<path d="M205.1,169c0-4.1,2.6-6.8,6.3-6.8s6.3,2.7,6.3,6.8v32.5c0,4.1-2.6,6.8-6.3,6.8s-6.3-2.7-6.3-6.8V169z"/>
	<path d="M268.9,185.3c0,12.7-9.1,23.4-22.7,23.4s-22.7-10.8-22.7-23.4c0-12.4,9.3-23.6,22.7-23.6
		C259.5,161.7,268.9,173,268.9,185.3z M236.1,185.3c0,5.8,3.2,12.3,10,12.3s10-6.4,10-12.3s-3.1-12.4-10-12.4
		S236.1,179.5,236.1,185.3L236.1,185.3z"/>
	<path d="M274.7,169c0-4.1,2.6-6.8,6.3-6.8c3.3,0,5.4,1.7,5.8,4.5c2.5-3.3,6.2-5,12.2-5c9.9,0,17.4,6.1,17.4,16.4v23.4
		c0,4.1-2.6,6.8-6.3,6.8s-6.3-2.7-6.3-6.8v-21.3c0-5.7-3.7-8.4-8.3-8.4c-5.2,0-8.1,3.6-8.1,8.4v21.2c0,4.1-2.6,6.8-6.3,6.8
		s-6.3-2.7-6.3-6.8L274.7,169L274.7,169z"/>
	<path d="M77.3,135.3c0,9.6-7.7,17.3-17.3,17.3s-17.3-7.7-17.3-17.3S50.4,118,60,118l0,0C69.6,118,77.3,125.7,77.3,135.3z"/>
	<path d="M137,120.9c0,12.4-10.1,22.5-22.5,22.5S92,133.3,92,120.9s10.1-22.5,22.5-22.5S137,108.4,137,120.9L137,120.9z"/>
	<path d="M117.7,19.3c0,3.6-2.9,6.5-6.5,6.5s-6.5-2.9-6.5-6.5s2.9-6.5,6.5-6.5C114.8,12.8,117.7,15.7,117.7,19.3L117.7,19.3z"/>
	<ellipse cx="55.8" cy="8.6" rx="8.6" ry="8.6"/>
	<path d="M24.2,45.2c0,6.2-5,11.3-11.3,11.3s-11.3-5-11.3-11.3s5-11.3,11.3-11.3l0,0C19.1,33.9,24.2,39,24.2,45.2L24.2,45.2z"/>
	<path d="M29.5,101.6c0,8.2-6.6,14.8-14.7,14.8S0,109.8,0,101.6s6.6-14.8,14.7-14.8l0,0C22.9,86.8,29.5,93.4,29.5,101.6z"/>
</g>
</svg>
