<?xml version="1.0" encoding="utf-8"?>
<!-- Svg Vector Icons : http://www.onlinewebfonts.com/icon -->
<!DOCTYPE svg PUBLIC "-//W3C//DTD SVG 1.1//EN" "http://www.w3.org/Graphics/SVG/1.1/DTD/svg11.dtd">
<svg version="1.1" xmlns="http://www.w3.org/2000/svg" xmlns:xlink="http://www.w3.org/1999/xlink" x="0px" y="0px" viewBox="0 0 1000 1000" enable-background="new 0 0 1000 1000" xml:space="preserve">
<metadata> Svg Vector Icons : http://www.onlinewebfonts.com/icon </metadata>
<g><g transform="matrix(1 0 0 -1 0 1952)"><path d="M590.7,1778.7c45.1,0,81.6,36.5,81.6,81.6c0,45.1-36.6,81.6-81.6,81.6c-45.1,0-81.6-36.6-81.6-81.6C509,1815.3,545.6,1778.7,590.7,1778.7z M783.8,1488l-71.7,39.8c0,0-83.6,55.7-79.6,127.4c0,0-14.4,79.1-86.1,103c0,0-35.8,27.9-79.6,11.9l-188.7-87.1c0,0-27.4-15.9-27.4-35.8v-187.7c0,0-5-35.8,19.4-35.8c0,0,41.8,13.9,41.8,25.9l2,141.9c0,0,5,11.5,35.8,31.4l31.9,24.4c0,0,35.8,23.9,27.9-8c0,0-63.2-93.6-63.2-151.3v-143.4L215.3,1044c0,0-39.8-61.7,23.9-81.6c0,0,42.8-6.5,62.7,33.4l115.5,221.5c0,0,25.9,65.2,47.8,43.3l81.6-91.1c0,0,21.9-47.8,21.9-175.2c0,0-8-31.9,51.8-31.9c0,0,42.8-2,42.8,29.9v117.5c0,0-7,135.4-126.4,270.8v39.8l19.9,111.5c0,0,23.9,27.9,39.8,4c0,0-4-33.8,63.7-69.7l79.6-29.9c0,0,43.8-15.9,51.8,8C791.8,1444.2,807.7,1480.1,783.8,1488L783.8,1488z"/></g></g>
</svg>