<?xml version="1.0" encoding="utf-8" standalone="no"?>
<!DOCTYPE svg PUBLIC "-//W3C//DTD SVG 1.1//EN"
  "http://www.w3.org/Graphics/SVG/1.1/DTD/svg11.dtd">
<svg height="345.6pt" version="1.1" viewBox="0 0 460.8 345.6" width="460.8pt" xmlns="http://www.w3.org/2000/svg" xmlns:xlink="http://www.w3.org/1999/xlink">
 <metadata>
  <rdf:RDF xmlns:cc="http://creativecommons.org/ns#" xmlns:dc="http://purl.org/dc/elements/1.1/" xmlns:rdf="http://www.w3.org/1999/02/22-rdf-syntax-ns#">
   <cc:Work>
    <dc:type rdf:resource="http://purl.org/dc/dcmitype/StillImage"/>
    <dc:date>2021-05-24T13:39:28.601536</dc:date>
    <dc:format>image/svg+xml</dc:format>
    <dc:creator>
     <cc:Agent>
      <dc:title>Matplotlib v3.4.2, https://matplotlib.org/</dc:title>
     </cc:Agent>
    </dc:creator>
   </cc:Work>
  </rdf:RDF>
 </metadata>
 <defs>
  <style type="text/css">*{stroke-linecap:butt;stroke-linejoin:round;}</style>
 </defs>
 <g id="figure_1">
  <g id="patch_1">
   <path d="M 0 345.6 
L 460.8 345.6 
L 460.8 0 
L 0 0 
z
" style="fill:#ffffff;"/>
  </g>
  <g id="axes_1">
   <g id="patch_2">
    <path d="M 54.02 317.72 
L 450 317.72 
L 450 26.88 
L 54.02 26.88 
z
" style="fill:#ffffff;"/>
   </g>
   <g id="patch_3">
    <path clip-path="url(#p69f375f1b7)" d="M 72.019091 317.72 
L 75.51406 317.72 
L 75.51406 157.326778 
L 72.019091 157.326778 
z
" style="fill:#1f77b4;"/>
   </g>
   <g id="patch_4">
    <path clip-path="url(#p69f375f1b7)" d="M 85.998967 317.72 
L 89.493936 317.72 
L 89.493936 238.842985 
L 85.998967 238.842985 
z
" style="fill:#1f77b4;"/>
   </g>
   <g id="patch_5">
    <path clip-path="url(#p69f375f1b7)" d="M 99.978844 317.72 
L 103.473813 317.72 
L 103.473813 227.576989 
L 99.978844 227.576989 
z
" style="fill:#1f77b4;"/>
   </g>
   <g id="patch_6">
    <path clip-path="url(#p69f375f1b7)" d="M 113.95872 317.72 
L 117.453689 317.72 
L 117.453689 233.590392 
L 113.95872 233.590392 
z
" style="fill:#1f77b4;"/>
   </g>
   <g id="patch_7">
    <path clip-path="url(#p69f375f1b7)" d="M 127.938597 317.72 
L 131.433566 317.72 
L 131.433566 152.966094 
L 127.938597 152.966094 
z
" style="fill:#1f77b4;"/>
   </g>
   <g id="patch_8">
    <path clip-path="url(#p69f375f1b7)" d="M 141.918473 317.72 
L 145.413442 317.72 
L 145.413442 251.826175 
L 141.918473 251.826175 
z
" style="fill:#1f77b4;"/>
   </g>
   <g id="patch_9">
    <path clip-path="url(#p69f375f1b7)" d="M 155.89835 317.72 
L 159.393319 317.72 
L 159.393319 255.415303 
L 155.89835 255.415303 
z
" style="fill:#1f77b4;"/>
   </g>
   <g id="patch_10">
    <path clip-path="url(#p69f375f1b7)" d="M 169.878226 317.72 
L 173.373195 317.72 
L 173.373195 241.705691 
L 169.878226 241.705691 
z
" style="fill:#1f77b4;"/>
   </g>
   <g id="patch_11">
    <path clip-path="url(#p69f375f1b7)" d="M 183.858102 317.72 
L 187.353071 317.72 
L 187.353071 200.314655 
L 183.858102 200.314655 
z
" style="fill:#1f77b4;"/>
   </g>
   <g id="patch_12">
    <path clip-path="url(#p69f375f1b7)" d="M 197.837979 317.72 
L 201.332948 317.72 
L 201.332948 261.940211 
L 197.837979 261.940211 
z
" style="fill:#1f77b4;"/>
   </g>
   <g id="patch_13">
    <path clip-path="url(#p69f375f1b7)" d="M 211.817855 317.72 
L 215.312824 317.72 
L 215.312824 256.911132 
L 211.817855 256.911132 
z
" style="fill:#1f77b4;"/>
   </g>
   <g id="patch_14">
    <path clip-path="url(#p69f375f1b7)" d="M 225.797732 317.72 
L 229.292701 317.72 
L 229.292701 220.104294 
L 225.797732 220.104294 
z
" style="fill:#1f77b4;"/>
   </g>
   <g id="patch_15">
    <path clip-path="url(#p69f375f1b7)" d="M 239.777608 317.72 
L 243.272577 317.72 
L 243.272577 242.681418 
L 239.777608 242.681418 
z
" style="fill:#1f77b4;"/>
   </g>
   <g id="patch_16">
    <path clip-path="url(#p69f375f1b7)" d="M 253.757485 317.72 
L 257.252454 317.72 
L 257.252454 195.689622 
L 253.757485 195.689622 
z
" style="fill:#1f77b4;"/>
   </g>
   <g id="patch_17">
    <path clip-path="url(#p69f375f1b7)" d="M 267.737361 317.72 
L 271.23233 317.72 
L 271.23233 210.151446 
L 267.737361 210.151446 
z
" style="fill:#1f77b4;"/>
   </g>
   <g id="patch_18">
    <path clip-path="url(#p69f375f1b7)" d="M 281.717237 317.72 
L 285.212207 317.72 
L 285.212207 255.183192 
L 281.717237 255.183192 
z
" style="fill:#1f77b4;"/>
   </g>
   <g id="patch_19">
    <path clip-path="url(#p69f375f1b7)" d="M 295.697114 317.72 
L 299.192083 317.72 
L 299.192083 288.443885 
L 295.697114 288.443885 
z
" style="fill:#1f77b4;"/>
   </g>
   <g id="patch_20">
    <path clip-path="url(#p69f375f1b7)" d="M 309.67699 317.72 
L 313.171959 317.72 
L 313.171959 199.394806 
L 309.67699 199.394806 
z
" style="fill:#1f77b4;"/>
   </g>
   <g id="patch_21">
    <path clip-path="url(#p69f375f1b7)" d="M 323.656867 317.72 
L 327.151836 317.72 
L 327.151836 197.916171 
L 323.656867 197.916171 
z
" style="fill:#1f77b4;"/>
   </g>
   <g id="patch_22">
    <path clip-path="url(#p69f375f1b7)" d="M 337.636743 317.72 
L 341.131712 317.72 
L 341.131712 201.496703 
L 337.636743 201.496703 
z
" style="fill:#1f77b4;"/>
   </g>
   <g id="patch_23">
    <path clip-path="url(#p69f375f1b7)" d="M 351.61662 317.72 
L 355.111589 317.72 
L 355.111589 250.091787 
L 351.61662 250.091787 
z
" style="fill:#1f77b4;"/>
   </g>
   <g id="patch_24">
    <path clip-path="url(#p69f375f1b7)" d="M 365.596496 317.72 
L 369.091465 317.72 
L 369.091465 271.819986 
L 365.596496 271.819986 
z
" style="fill:#1f77b4;"/>
   </g>
   <g id="patch_25">
    <path clip-path="url(#p69f375f1b7)" d="M 379.576372 317.72 
L 383.071342 317.72 
L 383.071342 277.483072 
L 379.576372 277.483072 
z
" style="fill:#1f77b4;"/>
   </g>
   <g id="patch_26">
    <path clip-path="url(#p69f375f1b7)" d="M 393.556249 317.72 
L 397.051218 317.72 
L 397.051218 285.649952 
L 393.556249 285.649952 
z
" style="fill:#1f77b4;"/>
   </g>
   <g id="patch_27">
    <path clip-path="url(#p69f375f1b7)" d="M 407.536125 317.72 
L 411.031094 317.72 
L 411.031094 252.655758 
L 407.536125 252.655758 
z
" style="fill:#1f77b4;"/>
   </g>
   <g id="patch_28">
    <path clip-path="url(#p69f375f1b7)" d="M 421.516002 317.72 
L 425.010971 317.72 
L 425.010971 284.360445 
L 421.516002 284.360445 
z
" style="fill:#1f77b4;"/>
   </g>
   <g id="patch_29">
    <path clip-path="url(#p69f375f1b7)" d="M 75.51406 317.72 
L 79.009029 317.72 
L 79.009029 73.528143 
L 75.51406 73.528143 
z
" style="fill:#ff7f0e;"/>
   </g>
   <g id="patch_30">
    <path clip-path="url(#p69f375f1b7)" d="M 89.493936 317.72 
L 92.988906 317.72 
L 92.988906 307.333018 
L 89.493936 307.333018 
z
" style="fill:#ff7f0e;"/>
   </g>
   <g id="patch_31">
    <path clip-path="url(#p69f375f1b7)" d="M 103.473813 317.72 
L 106.968782 317.72 
L 106.968782 277.377763 
L 103.473813 277.377763 
z
" style="fill:#ff7f0e;"/>
   </g>
   <g id="patch_32">
    <path clip-path="url(#p69f375f1b7)" d="M 117.453689 317.72 
L 120.948658 317.72 
L 120.948658 277.377763 
L 117.453689 277.377763 
z
" style="fill:#ff7f0e;"/>
   </g>
   <g id="patch_33">
    <path clip-path="url(#p69f375f1b7)" d="M 131.433566 317.72 
L 134.928535 317.72 
L 134.928535 73.528143 
L 131.433566 73.528143 
z
" style="fill:#ff7f0e;"/>
   </g>
   <g id="patch_34">
    <path clip-path="url(#p69f375f1b7)" d="M 145.413442 317.72 
L 148.908411 317.72 
L 148.908411 307.333018 
L 145.413442 307.333018 
z
" style="fill:#ff7f0e;"/>
   </g>
   <g id="patch_35">
    <path clip-path="url(#p69f375f1b7)" d="M 159.393319 317.72 
L 162.888288 317.72 
L 162.888288 307.333018 
L 159.393319 307.333018 
z
" style="fill:#ff7f0e;"/>
   </g>
   <g id="patch_36">
    <path clip-path="url(#p69f375f1b7)" d="M 173.373195 317.72 
L 176.868164 317.72 
L 176.868164 307.333018 
L 173.373195 307.333018 
z
" style="fill:#ff7f0e;"/>
   </g>
   <g id="patch_37">
    <path clip-path="url(#p69f375f1b7)" d="M 187.353071 317.72 
L 190.848041 317.72 
L 190.848041 277.377763 
L 187.353071 277.377763 
z
" style="fill:#ff7f0e;"/>
   </g>
   <g id="patch_38">
    <path clip-path="url(#p69f375f1b7)" d="M 201.332948 317.72 
L 204.827917 317.72 
L 204.827917 307.333018 
L 201.332948 307.333018 
z
" style="fill:#ff7f0e;"/>
   </g>
   <g id="patch_39">
    <path clip-path="url(#p69f375f1b7)" d="M 215.312824 317.72 
L 218.807793 317.72 
L 218.807793 277.377763 
L 215.312824 277.377763 
z
" style="fill:#ff7f0e;"/>
   </g>
   <g id="patch_40">
    <path clip-path="url(#p69f375f1b7)" d="M 229.292701 317.72 
L 232.78767 317.72 
L 232.78767 277.377763 
L 229.292701 277.377763 
z
" style="fill:#ff7f0e;"/>
   </g>
   <g id="patch_41">
    <path clip-path="url(#p69f375f1b7)" d="M 243.272577 317.72 
L 246.767546 317.72 
L 246.767546 103.483399 
L 243.272577 103.483399 
z
" style="fill:#ff7f0e;"/>
   </g>
   <g id="patch_42">
    <path clip-path="url(#p69f375f1b7)" d="M 257.252454 317.72 
L 260.747423 317.72 
L 260.747423 277.377763 
L 257.252454 277.377763 
z
" style="fill:#ff7f0e;"/>
   </g>
   <g id="patch_43">
    <path clip-path="url(#p69f375f1b7)" d="M 271.23233 317.72 
L 274.727299 317.72 
L 274.727299 277.377763 
L 271.23233 277.377763 
z
" style="fill:#ff7f0e;"/>
   </g>
   <g id="patch_44">
    <path clip-path="url(#p69f375f1b7)" d="M 285.212207 317.72 
L 288.707176 317.72 
L 288.707176 307.333018 
L 285.212207 307.333018 
z
" style="fill:#ff7f0e;"/>
   </g>
   <g id="patch_45">
    <path clip-path="url(#p69f375f1b7)" d="M 299.192083 317.72 
L 302.687052 317.72 
L 302.687052 103.483399 
L 299.192083 103.483399 
z
" style="fill:#ff7f0e;"/>
   </g>
   <g id="patch_46">
    <path clip-path="url(#p69f375f1b7)" d="M 313.171959 317.72 
L 316.666929 317.72 
L 316.666929 307.333018 
L 313.171959 307.333018 
z
" style="fill:#ff7f0e;"/>
   </g>
   <g id="patch_47">
    <path clip-path="url(#p69f375f1b7)" d="M 327.151836 317.72 
L 330.646805 317.72 
L 330.646805 103.483399 
L 327.151836 103.483399 
z
" style="fill:#ff7f0e;"/>
   </g>
   <g id="patch_48">
    <path clip-path="url(#p69f375f1b7)" d="M 341.131712 317.72 
L 344.626681 317.72 
L 344.626681 277.377763 
L 341.131712 277.377763 
z
" style="fill:#ff7f0e;"/>
   </g>
   <g id="patch_49">
    <path clip-path="url(#p69f375f1b7)" d="M 355.111589 317.72 
L 358.606558 317.72 
L 358.606558 277.377763 
L 355.111589 277.377763 
z
" style="fill:#ff7f0e;"/>
   </g>
   <g id="patch_50">
    <path clip-path="url(#p69f375f1b7)" d="M 369.091465 317.72 
L 372.586434 317.72 
L 372.586434 277.377763 
L 369.091465 277.377763 
z
" style="fill:#ff7f0e;"/>
   </g>
   <g id="patch_51">
    <path clip-path="url(#p69f375f1b7)" d="M 383.071342 317.72 
L 386.566311 317.72 
L 386.566311 307.333018 
L 383.071342 307.333018 
z
" style="fill:#ff7f0e;"/>
   </g>
   <g id="patch_52">
    <path clip-path="url(#p69f375f1b7)" d="M 397.051218 317.72 
L 400.546187 317.72 
L 400.546187 103.483399 
L 397.051218 103.483399 
z
" style="fill:#ff7f0e;"/>
   </g>
   <g id="patch_53">
    <path clip-path="url(#p69f375f1b7)" d="M 411.031094 317.72 
L 414.526064 317.72 
L 414.526064 277.377763 
L 411.031094 277.377763 
z
" style="fill:#ff7f0e;"/>
   </g>
   <g id="patch_54">
    <path clip-path="url(#p69f375f1b7)" d="M 425.010971 317.72 
L 428.50594 317.72 
L 428.50594 40.729524 
L 425.010971 40.729524 
z
" style="fill:#ff7f0e;"/>
   </g>
   <g id="patch_55">
    <path clip-path="url(#p69f375f1b7)" d="M 79.009029 317.72 
L 82.503998 317.72 
L 82.503998 251.020233 
L 79.009029 251.020233 
z
" style="fill:#2ca02c;"/>
   </g>
   <g id="patch_56">
    <path clip-path="url(#p69f375f1b7)" d="M 92.988906 317.72 
L 96.483875 317.72 
L 96.483875 135.826392 
L 92.988906 135.826392 
z
" style="fill:#2ca02c;"/>
   </g>
   <g id="patch_57">
    <path clip-path="url(#p69f375f1b7)" d="M 106.968782 317.72 
L 110.463751 317.72 
L 110.463751 285.239459 
L 106.968782 285.239459 
z
" style="fill:#2ca02c;"/>
   </g>
   <g id="patch_58">
    <path clip-path="url(#p69f375f1b7)" d="M 120.948658 317.72 
L 124.443628 317.72 
L 124.443628 285.239459 
L 120.948658 285.239459 
z
" style="fill:#2ca02c;"/>
   </g>
   <g id="patch_59">
    <path clip-path="url(#p69f375f1b7)" d="M 134.928535 317.72 
L 138.423504 317.72 
L 138.423504 251.020233 
L 134.928535 251.020233 
z
" style="fill:#2ca02c;"/>
   </g>
   <g id="patch_60">
    <path clip-path="url(#p69f375f1b7)" d="M 148.908411 317.72 
L 152.40338 317.72 
L 152.40338 266.096723 
L 148.908411 266.096723 
z
" style="fill:#2ca02c;"/>
   </g>
   <g id="patch_61">
    <path clip-path="url(#p69f375f1b7)" d="M 162.888288 317.72 
L 166.383257 317.72 
L 166.383257 167.726655 
L 162.888288 167.726655 
z
" style="fill:#2ca02c;"/>
   </g>
   <g id="patch_62">
    <path clip-path="url(#p69f375f1b7)" d="M 176.868164 317.72 
L 180.363133 317.72 
L 180.363133 167.726655 
L 176.868164 167.726655 
z
" style="fill:#2ca02c;"/>
   </g>
   <g id="patch_63">
    <path clip-path="url(#p69f375f1b7)" d="M 190.848041 317.72 
L 194.34301 317.72 
L 194.34301 266.096723 
L 190.848041 266.096723 
z
" style="fill:#2ca02c;"/>
   </g>
   <g id="patch_64">
    <path clip-path="url(#p69f375f1b7)" d="M 204.827917 317.72 
L 208.322886 317.72 
L 208.322886 135.826392 
L 204.827917 135.826392 
z
" style="fill:#2ca02c;"/>
   </g>
   <g id="patch_65">
    <path clip-path="url(#p69f375f1b7)" d="M 218.807793 317.72 
L 222.302763 317.72 
L 222.302763 285.239459 
L 218.807793 285.239459 
z
" style="fill:#2ca02c;"/>
   </g>
   <g id="patch_66">
    <path clip-path="url(#p69f375f1b7)" d="M 232.78767 317.72 
L 236.282639 317.72 
L 236.282639 285.239459 
L 232.78767 285.239459 
z
" style="fill:#2ca02c;"/>
   </g>
   <g id="patch_67">
    <path clip-path="url(#p69f375f1b7)" d="M 246.767546 317.72 
L 250.262515 317.72 
L 250.262515 285.239459 
L 246.767546 285.239459 
z
" style="fill:#2ca02c;"/>
   </g>
   <g id="patch_68">
    <path clip-path="url(#p69f375f1b7)" d="M 260.747423 317.72 
L 264.242392 317.72 
L 264.242392 154.969129 
L 260.747423 154.969129 
z
" style="fill:#2ca02c;"/>
   </g>
   <g id="patch_69">
    <path clip-path="url(#p69f375f1b7)" d="M 274.727299 317.72 
L 278.222268 317.72 
L 278.222268 266.096723 
L 274.727299 266.096723 
z
" style="fill:#2ca02c;"/>
   </g>
   <g id="patch_70">
    <path clip-path="url(#p69f375f1b7)" d="M 288.707176 317.72 
L 292.202145 317.72 
L 292.202145 285.239459 
L 288.707176 285.239459 
z
" style="fill:#2ca02c;"/>
   </g>
   <g id="patch_71">
    <path clip-path="url(#p69f375f1b7)" d="M 302.687052 317.72 
L 306.182021 317.72 
L 306.182021 297.996985 
L 302.687052 297.996985 
z
" style="fill:#2ca02c;"/>
   </g>
   <g id="patch_72">
    <path clip-path="url(#p69f375f1b7)" d="M 316.666929 317.72 
L 320.161898 317.72 
L 320.161898 285.239459 
L 316.666929 285.239459 
z
" style="fill:#2ca02c;"/>
   </g>
   <g id="patch_73">
    <path clip-path="url(#p69f375f1b7)" d="M 330.646805 317.72 
L 334.141774 317.72 
L 334.141774 285.239459 
L 330.646805 285.239459 
z
" style="fill:#2ca02c;"/>
   </g>
   <g id="patch_74">
    <path clip-path="url(#p69f375f1b7)" d="M 344.626681 317.72 
L 348.12165 317.72 
L 348.12165 135.826392 
L 344.626681 135.826392 
z
" style="fill:#2ca02c;"/>
   </g>
   <g id="patch_75">
    <path clip-path="url(#p69f375f1b7)" d="M 358.606558 317.72 
L 362.101527 317.72 
L 362.101527 148.583918 
L 358.606558 148.583918 
z
" style="fill:#2ca02c;"/>
   </g>
   <g id="patch_76">
    <path clip-path="url(#p69f375f1b7)" d="M 372.586434 317.72 
L 376.081403 317.72 
L 376.081403 297.996985 
L 372.586434 297.996985 
z
" style="fill:#2ca02c;"/>
   </g>
   <g id="patch_77">
    <path clip-path="url(#p69f375f1b7)" d="M 386.566311 317.72 
L 390.06128 317.72 
L 390.06128 297.996985 
L 386.566311 297.996985 
z
" style="fill:#2ca02c;"/>
   </g>
   <g id="patch_78">
    <path clip-path="url(#p69f375f1b7)" d="M 400.546187 317.72 
L 404.041156 317.72 
L 404.041156 297.996985 
L 400.546187 297.996985 
z
" style="fill:#2ca02c;"/>
   </g>
   <g id="patch_79">
    <path clip-path="url(#p69f375f1b7)" d="M 414.526064 317.72 
L 418.021033 317.72 
L 418.021033 154.969129 
L 414.526064 154.969129 
z
" style="fill:#2ca02c;"/>
   </g>
   <g id="patch_80">
    <path clip-path="url(#p69f375f1b7)" d="M 428.50594 317.72 
L 432.000909 317.72 
L 432.000909 135.850033 
L 428.50594 135.850033 
z
" style="fill:#2ca02c;"/>
   </g>
   <g id="matplotlib.axis_1">
    <g id="xtick_1">
     <g id="line2d_1">
      <defs>
       <path d="M 0 0 
L 0 3.5 
" id="m86a139e7c1" style="stroke:#000000;stroke-width:0.8;"/>
      </defs>
      <g>
       <use style="stroke:#000000;stroke-width:0.8;" x="77.261545" xlink:href="#m86a139e7c1" y="317.72"/>
      </g>
     </g>
     <g id="text_1">
      <!-- a -->
      <g transform="translate(74.197482 332.318437)scale(0.1 -0.1)">
       <defs>
        <path d="M 2194 1759 
Q 1497 1759 1228 1600 
Q 959 1441 959 1056 
Q 959 750 1161 570 
Q 1363 391 1709 391 
Q 2188 391 2477 730 
Q 2766 1069 2766 1631 
L 2766 1759 
L 2194 1759 
z
M 3341 1997 
L 3341 0 
L 2766 0 
L 2766 531 
Q 2569 213 2275 61 
Q 1981 -91 1556 -91 
Q 1019 -91 701 211 
Q 384 513 384 1019 
Q 384 1609 779 1909 
Q 1175 2209 1959 2209 
L 2766 2209 
L 2766 2266 
Q 2766 2663 2505 2880 
Q 2244 3097 1772 3097 
Q 1472 3097 1187 3025 
Q 903 2953 641 2809 
L 641 3341 
Q 956 3463 1253 3523 
Q 1550 3584 1831 3584 
Q 2591 3584 2966 3190 
Q 3341 2797 3341 1997 
z
" id="DejaVuSans-61" transform="scale(0.015625)"/>
       </defs>
       <use xlink:href="#DejaVuSans-61"/>
      </g>
     </g>
    </g>
    <g id="xtick_2">
     <g id="line2d_2">
      <g>
       <use style="stroke:#000000;stroke-width:0.8;" x="91.241421" xlink:href="#m86a139e7c1" y="317.72"/>
      </g>
     </g>
     <g id="text_2">
      <!-- b -->
      <g transform="translate(88.067202 332.318437)scale(0.1 -0.1)">
       <defs>
        <path d="M 3116 1747 
Q 3116 2381 2855 2742 
Q 2594 3103 2138 3103 
Q 1681 3103 1420 2742 
Q 1159 2381 1159 1747 
Q 1159 1113 1420 752 
Q 1681 391 2138 391 
Q 2594 391 2855 752 
Q 3116 1113 3116 1747 
z
M 1159 2969 
Q 1341 3281 1617 3432 
Q 1894 3584 2278 3584 
Q 2916 3584 3314 3078 
Q 3713 2572 3713 1747 
Q 3713 922 3314 415 
Q 2916 -91 2278 -91 
Q 1894 -91 1617 61 
Q 1341 213 1159 525 
L 1159 0 
L 581 0 
L 581 4863 
L 1159 4863 
L 1159 2969 
z
" id="DejaVuSans-62" transform="scale(0.015625)"/>
       </defs>
       <use xlink:href="#DejaVuSans-62"/>
      </g>
     </g>
    </g>
    <g id="xtick_3">
     <g id="line2d_3">
      <g>
       <use style="stroke:#000000;stroke-width:0.8;" x="105.221297" xlink:href="#m86a139e7c1" y="317.72"/>
      </g>
     </g>
     <g id="text_3">
      <!-- c -->
      <g transform="translate(102.472079 332.318437)scale(0.1 -0.1)">
       <defs>
        <path d="M 3122 3366 
L 3122 2828 
Q 2878 2963 2633 3030 
Q 2388 3097 2138 3097 
Q 1578 3097 1268 2742 
Q 959 2388 959 1747 
Q 959 1106 1268 751 
Q 1578 397 2138 397 
Q 2388 397 2633 464 
Q 2878 531 3122 666 
L 3122 134 
Q 2881 22 2623 -34 
Q 2366 -91 2075 -91 
Q 1284 -91 818 406 
Q 353 903 353 1747 
Q 353 2603 823 3093 
Q 1294 3584 2113 3584 
Q 2378 3584 2631 3529 
Q 2884 3475 3122 3366 
z
" id="DejaVuSans-63" transform="scale(0.015625)"/>
       </defs>
       <use xlink:href="#DejaVuSans-63"/>
      </g>
     </g>
    </g>
    <g id="xtick_4">
     <g id="line2d_4">
      <g>
       <use style="stroke:#000000;stroke-width:0.8;" x="119.201174" xlink:href="#m86a139e7c1" y="317.72"/>
      </g>
     </g>
     <g id="text_4">
      <!-- d -->
      <g transform="translate(116.026955 332.318437)scale(0.1 -0.1)">
       <defs>
        <path d="M 2906 2969 
L 2906 4863 
L 3481 4863 
L 3481 0 
L 2906 0 
L 2906 525 
Q 2725 213 2448 61 
Q 2172 -91 1784 -91 
Q 1150 -91 751 415 
Q 353 922 353 1747 
Q 353 2572 751 3078 
Q 1150 3584 1784 3584 
Q 2172 3584 2448 3432 
Q 2725 3281 2906 2969 
z
M 947 1747 
Q 947 1113 1208 752 
Q 1469 391 1925 391 
Q 2381 391 2643 752 
Q 2906 1113 2906 1747 
Q 2906 2381 2643 2742 
Q 2381 3103 1925 3103 
Q 1469 3103 1208 2742 
Q 947 2381 947 1747 
z
" id="DejaVuSans-64" transform="scale(0.015625)"/>
       </defs>
       <use xlink:href="#DejaVuSans-64"/>
      </g>
     </g>
    </g>
    <g id="xtick_5">
     <g id="line2d_5">
      <g>
       <use style="stroke:#000000;stroke-width:0.8;" x="133.18105" xlink:href="#m86a139e7c1" y="317.72"/>
      </g>
     </g>
     <g id="text_5">
      <!-- e -->
      <g transform="translate(130.104488 332.318437)scale(0.1 -0.1)">
       <defs>
        <path d="M 3597 1894 
L 3597 1613 
L 953 1613 
Q 991 1019 1311 708 
Q 1631 397 2203 397 
Q 2534 397 2845 478 
Q 3156 559 3463 722 
L 3463 178 
Q 3153 47 2828 -22 
Q 2503 -91 2169 -91 
Q 1331 -91 842 396 
Q 353 884 353 1716 
Q 353 2575 817 3079 
Q 1281 3584 2069 3584 
Q 2775 3584 3186 3129 
Q 3597 2675 3597 1894 
z
M 3022 2063 
Q 3016 2534 2758 2815 
Q 2500 3097 2075 3097 
Q 1594 3097 1305 2825 
Q 1016 2553 972 2059 
L 3022 2063 
z
" id="DejaVuSans-65" transform="scale(0.015625)"/>
       </defs>
       <use xlink:href="#DejaVuSans-65"/>
      </g>
     </g>
    </g>
    <g id="xtick_6">
     <g id="line2d_6">
      <g>
       <use style="stroke:#000000;stroke-width:0.8;" x="147.160927" xlink:href="#m86a139e7c1" y="317.72"/>
      </g>
     </g>
     <g id="text_6">
      <!-- f -->
      <g transform="translate(145.40077 332.318437)scale(0.1 -0.1)">
       <defs>
        <path d="M 2375 4863 
L 2375 4384 
L 1825 4384 
Q 1516 4384 1395 4259 
Q 1275 4134 1275 3809 
L 1275 3500 
L 2222 3500 
L 2222 3053 
L 1275 3053 
L 1275 0 
L 697 0 
L 697 3053 
L 147 3053 
L 147 3500 
L 697 3500 
L 697 3744 
Q 697 4328 969 4595 
Q 1241 4863 1831 4863 
L 2375 4863 
z
" id="DejaVuSans-66" transform="scale(0.015625)"/>
       </defs>
       <use xlink:href="#DejaVuSans-66"/>
      </g>
     </g>
    </g>
    <g id="xtick_7">
     <g id="line2d_7">
      <g>
       <use style="stroke:#000000;stroke-width:0.8;" x="161.140803" xlink:href="#m86a139e7c1" y="317.72"/>
      </g>
     </g>
     <g id="text_7">
      <!-- g -->
      <g transform="translate(157.966584 332.318437)scale(0.1 -0.1)">
       <defs>
        <path d="M 2906 1791 
Q 2906 2416 2648 2759 
Q 2391 3103 1925 3103 
Q 1463 3103 1205 2759 
Q 947 2416 947 1791 
Q 947 1169 1205 825 
Q 1463 481 1925 481 
Q 2391 481 2648 825 
Q 2906 1169 2906 1791 
z
M 3481 434 
Q 3481 -459 3084 -895 
Q 2688 -1331 1869 -1331 
Q 1566 -1331 1297 -1286 
Q 1028 -1241 775 -1147 
L 775 -588 
Q 1028 -725 1275 -790 
Q 1522 -856 1778 -856 
Q 2344 -856 2625 -561 
Q 2906 -266 2906 331 
L 2906 616 
Q 2728 306 2450 153 
Q 2172 0 1784 0 
Q 1141 0 747 490 
Q 353 981 353 1791 
Q 353 2603 747 3093 
Q 1141 3584 1784 3584 
Q 2172 3584 2450 3431 
Q 2728 3278 2906 2969 
L 2906 3500 
L 3481 3500 
L 3481 434 
z
" id="DejaVuSans-67" transform="scale(0.015625)"/>
       </defs>
       <use xlink:href="#DejaVuSans-67"/>
      </g>
     </g>
    </g>
    <g id="xtick_8">
     <g id="line2d_8">
      <g>
       <use style="stroke:#000000;stroke-width:0.8;" x="175.12068" xlink:href="#m86a139e7c1" y="317.72"/>
      </g>
     </g>
     <g id="text_8">
      <!-- h -->
      <g transform="translate(171.95193 332.318437)scale(0.1 -0.1)">
       <defs>
        <path d="M 3513 2113 
L 3513 0 
L 2938 0 
L 2938 2094 
Q 2938 2591 2744 2837 
Q 2550 3084 2163 3084 
Q 1697 3084 1428 2787 
Q 1159 2491 1159 1978 
L 1159 0 
L 581 0 
L 581 4863 
L 1159 4863 
L 1159 2956 
Q 1366 3272 1645 3428 
Q 1925 3584 2291 3584 
Q 2894 3584 3203 3211 
Q 3513 2838 3513 2113 
z
" id="DejaVuSans-68" transform="scale(0.015625)"/>
       </defs>
       <use xlink:href="#DejaVuSans-68"/>
      </g>
     </g>
    </g>
    <g id="xtick_9">
     <g id="line2d_9">
      <g>
       <use style="stroke:#000000;stroke-width:0.8;" x="189.100556" xlink:href="#m86a139e7c1" y="317.72"/>
      </g>
     </g>
     <g id="text_9">
      <!-- i -->
      <g transform="translate(187.711494 332.318437)scale(0.1 -0.1)">
       <defs>
        <path d="M 603 3500 
L 1178 3500 
L 1178 0 
L 603 0 
L 603 3500 
z
M 603 4863 
L 1178 4863 
L 1178 4134 
L 603 4134 
L 603 4863 
z
" id="DejaVuSans-69" transform="scale(0.015625)"/>
       </defs>
       <use xlink:href="#DejaVuSans-69"/>
      </g>
     </g>
    </g>
    <g id="xtick_10">
     <g id="line2d_10">
      <g>
       <use style="stroke:#000000;stroke-width:0.8;" x="203.080432" xlink:href="#m86a139e7c1" y="317.72"/>
      </g>
     </g>
     <g id="text_10">
      <!-- j -->
      <g transform="translate(201.69137 332.318437)scale(0.1 -0.1)">
       <defs>
        <path d="M 603 3500 
L 1178 3500 
L 1178 -63 
Q 1178 -731 923 -1031 
Q 669 -1331 103 -1331 
L -116 -1331 
L -116 -844 
L 38 -844 
Q 366 -844 484 -692 
Q 603 -541 603 -63 
L 603 3500 
z
M 603 4863 
L 1178 4863 
L 1178 4134 
L 603 4134 
L 603 4863 
z
" id="DejaVuSans-6a" transform="scale(0.015625)"/>
       </defs>
       <use xlink:href="#DejaVuSans-6a"/>
      </g>
     </g>
    </g>
    <g id="xtick_11">
     <g id="line2d_11">
      <g>
       <use style="stroke:#000000;stroke-width:0.8;" x="217.060309" xlink:href="#m86a139e7c1" y="317.72"/>
      </g>
     </g>
     <g id="text_11">
      <!-- k -->
      <g transform="translate(214.164996 332.318437)scale(0.1 -0.1)">
       <defs>
        <path d="M 581 4863 
L 1159 4863 
L 1159 1991 
L 2875 3500 
L 3609 3500 
L 1753 1863 
L 3688 0 
L 2938 0 
L 1159 1709 
L 1159 0 
L 581 0 
L 581 4863 
z
" id="DejaVuSans-6b" transform="scale(0.015625)"/>
       </defs>
       <use xlink:href="#DejaVuSans-6b"/>
      </g>
     </g>
    </g>
    <g id="xtick_12">
     <g id="line2d_12">
      <g>
       <use style="stroke:#000000;stroke-width:0.8;" x="231.040185" xlink:href="#m86a139e7c1" y="317.72"/>
      </g>
     </g>
     <g id="text_12">
      <!-- l -->
      <g transform="translate(229.651123 332.318437)scale(0.1 -0.1)">
       <defs>
        <path d="M 603 4863 
L 1178 4863 
L 1178 0 
L 603 0 
L 603 4863 
z
" id="DejaVuSans-6c" transform="scale(0.015625)"/>
       </defs>
       <use xlink:href="#DejaVuSans-6c"/>
      </g>
     </g>
    </g>
    <g id="xtick_13">
     <g id="line2d_13">
      <g>
       <use style="stroke:#000000;stroke-width:0.8;" x="245.020062" xlink:href="#m86a139e7c1" y="317.72"/>
      </g>
     </g>
     <g id="text_13">
      <!-- m -->
      <g transform="translate(240.149749 332.318437)scale(0.1 -0.1)">
       <defs>
        <path d="M 3328 2828 
Q 3544 3216 3844 3400 
Q 4144 3584 4550 3584 
Q 5097 3584 5394 3201 
Q 5691 2819 5691 2113 
L 5691 0 
L 5113 0 
L 5113 2094 
Q 5113 2597 4934 2840 
Q 4756 3084 4391 3084 
Q 3944 3084 3684 2787 
Q 3425 2491 3425 1978 
L 3425 0 
L 2847 0 
L 2847 2094 
Q 2847 2600 2669 2842 
Q 2491 3084 2119 3084 
Q 1678 3084 1418 2786 
Q 1159 2488 1159 1978 
L 1159 0 
L 581 0 
L 581 3500 
L 1159 3500 
L 1159 2956 
Q 1356 3278 1631 3431 
Q 1906 3584 2284 3584 
Q 2666 3584 2933 3390 
Q 3200 3197 3328 2828 
z
" id="DejaVuSans-6d" transform="scale(0.015625)"/>
       </defs>
       <use xlink:href="#DejaVuSans-6d"/>
      </g>
     </g>
    </g>
    <g id="xtick_14">
     <g id="line2d_14">
      <g>
       <use style="stroke:#000000;stroke-width:0.8;" x="258.999938" xlink:href="#m86a139e7c1" y="317.72"/>
      </g>
     </g>
     <g id="text_14">
      <!-- n -->
      <g transform="translate(255.831188 332.318437)scale(0.1 -0.1)">
       <defs>
        <path d="M 3513 2113 
L 3513 0 
L 2938 0 
L 2938 2094 
Q 2938 2591 2744 2837 
Q 2550 3084 2163 3084 
Q 1697 3084 1428 2787 
Q 1159 2491 1159 1978 
L 1159 0 
L 581 0 
L 581 3500 
L 1159 3500 
L 1159 2956 
Q 1366 3272 1645 3428 
Q 1925 3584 2291 3584 
Q 2894 3584 3203 3211 
Q 3513 2838 3513 2113 
z
" id="DejaVuSans-6e" transform="scale(0.015625)"/>
       </defs>
       <use xlink:href="#DejaVuSans-6e"/>
      </g>
     </g>
    </g>
    <g id="xtick_15">
     <g id="line2d_15">
      <g>
       <use style="stroke:#000000;stroke-width:0.8;" x="272.979815" xlink:href="#m86a139e7c1" y="317.72"/>
      </g>
     </g>
     <g id="text_15">
      <!-- o -->
      <g transform="translate(269.92044 332.318437)scale(0.1 -0.1)">
       <defs>
        <path d="M 1959 3097 
Q 1497 3097 1228 2736 
Q 959 2375 959 1747 
Q 959 1119 1226 758 
Q 1494 397 1959 397 
Q 2419 397 2687 759 
Q 2956 1122 2956 1747 
Q 2956 2369 2687 2733 
Q 2419 3097 1959 3097 
z
M 1959 3584 
Q 2709 3584 3137 3096 
Q 3566 2609 3566 1747 
Q 3566 888 3137 398 
Q 2709 -91 1959 -91 
Q 1206 -91 779 398 
Q 353 888 353 1747 
Q 353 2609 779 3096 
Q 1206 3584 1959 3584 
z
" id="DejaVuSans-6f" transform="scale(0.015625)"/>
       </defs>
       <use xlink:href="#DejaVuSans-6f"/>
      </g>
     </g>
    </g>
    <g id="xtick_16">
     <g id="line2d_16">
      <g>
       <use style="stroke:#000000;stroke-width:0.8;" x="286.959691" xlink:href="#m86a139e7c1" y="317.72"/>
      </g>
     </g>
     <g id="text_16">
      <!-- p -->
      <g transform="translate(283.785472 332.318437)scale(0.1 -0.1)">
       <defs>
        <path d="M 1159 525 
L 1159 -1331 
L 581 -1331 
L 581 3500 
L 1159 3500 
L 1159 2969 
Q 1341 3281 1617 3432 
Q 1894 3584 2278 3584 
Q 2916 3584 3314 3078 
Q 3713 2572 3713 1747 
Q 3713 922 3314 415 
Q 2916 -91 2278 -91 
Q 1894 -91 1617 61 
Q 1341 213 1159 525 
z
M 3116 1747 
Q 3116 2381 2855 2742 
Q 2594 3103 2138 3103 
Q 1681 3103 1420 2742 
Q 1159 2381 1159 1747 
Q 1159 1113 1420 752 
Q 1681 391 2138 391 
Q 2594 391 2855 752 
Q 3116 1113 3116 1747 
z
" id="DejaVuSans-70" transform="scale(0.015625)"/>
       </defs>
       <use xlink:href="#DejaVuSans-70"/>
      </g>
     </g>
    </g>
    <g id="xtick_17">
     <g id="line2d_17">
      <g>
       <use style="stroke:#000000;stroke-width:0.8;" x="300.939568" xlink:href="#m86a139e7c1" y="317.72"/>
      </g>
     </g>
     <g id="text_17">
      <!-- q -->
      <g transform="translate(297.765349 332.318437)scale(0.1 -0.1)">
       <defs>
        <path d="M 947 1747 
Q 947 1113 1208 752 
Q 1469 391 1925 391 
Q 2381 391 2643 752 
Q 2906 1113 2906 1747 
Q 2906 2381 2643 2742 
Q 2381 3103 1925 3103 
Q 1469 3103 1208 2742 
Q 947 2381 947 1747 
z
M 2906 525 
Q 2725 213 2448 61 
Q 2172 -91 1784 -91 
Q 1150 -91 751 415 
Q 353 922 353 1747 
Q 353 2572 751 3078 
Q 1150 3584 1784 3584 
Q 2172 3584 2448 3432 
Q 2725 3281 2906 2969 
L 2906 3500 
L 3481 3500 
L 3481 -1331 
L 2906 -1331 
L 2906 525 
z
" id="DejaVuSans-71" transform="scale(0.015625)"/>
       </defs>
       <use xlink:href="#DejaVuSans-71"/>
      </g>
     </g>
    </g>
    <g id="xtick_18">
     <g id="line2d_18">
      <g>
       <use style="stroke:#000000;stroke-width:0.8;" x="314.919444" xlink:href="#m86a139e7c1" y="317.72"/>
      </g>
     </g>
     <g id="text_18">
      <!-- r -->
      <g transform="translate(312.863975 332.318437)scale(0.1 -0.1)">
       <defs>
        <path d="M 2631 2963 
Q 2534 3019 2420 3045 
Q 2306 3072 2169 3072 
Q 1681 3072 1420 2755 
Q 1159 2438 1159 1844 
L 1159 0 
L 581 0 
L 581 3500 
L 1159 3500 
L 1159 2956 
Q 1341 3275 1631 3429 
Q 1922 3584 2338 3584 
Q 2397 3584 2469 3576 
Q 2541 3569 2628 3553 
L 2631 2963 
z
" id="DejaVuSans-72" transform="scale(0.015625)"/>
       </defs>
       <use xlink:href="#DejaVuSans-72"/>
      </g>
     </g>
    </g>
    <g id="xtick_19">
     <g id="line2d_19">
      <g>
       <use style="stroke:#000000;stroke-width:0.8;" x="328.89932" xlink:href="#m86a139e7c1" y="317.72"/>
      </g>
     </g>
     <g id="text_19">
      <!-- s -->
      <g transform="translate(326.294633 332.318437)scale(0.1 -0.1)">
       <defs>
        <path d="M 2834 3397 
L 2834 2853 
Q 2591 2978 2328 3040 
Q 2066 3103 1784 3103 
Q 1356 3103 1142 2972 
Q 928 2841 928 2578 
Q 928 2378 1081 2264 
Q 1234 2150 1697 2047 
L 1894 2003 
Q 2506 1872 2764 1633 
Q 3022 1394 3022 966 
Q 3022 478 2636 193 
Q 2250 -91 1575 -91 
Q 1294 -91 989 -36 
Q 684 19 347 128 
L 347 722 
Q 666 556 975 473 
Q 1284 391 1588 391 
Q 1994 391 2212 530 
Q 2431 669 2431 922 
Q 2431 1156 2273 1281 
Q 2116 1406 1581 1522 
L 1381 1569 
Q 847 1681 609 1914 
Q 372 2147 372 2553 
Q 372 3047 722 3315 
Q 1072 3584 1716 3584 
Q 2034 3584 2315 3537 
Q 2597 3491 2834 3397 
z
" id="DejaVuSans-73" transform="scale(0.015625)"/>
       </defs>
       <use xlink:href="#DejaVuSans-73"/>
      </g>
     </g>
    </g>
    <g id="xtick_20">
     <g id="line2d_20">
      <g>
       <use style="stroke:#000000;stroke-width:0.8;" x="342.879197" xlink:href="#m86a139e7c1" y="317.72"/>
      </g>
     </g>
     <g id="text_20">
      <!-- t -->
      <g transform="translate(340.919041 332.318437)scale(0.1 -0.1)">
       <defs>
        <path d="M 1172 4494 
L 1172 3500 
L 2356 3500 
L 2356 3053 
L 1172 3053 
L 1172 1153 
Q 1172 725 1289 603 
Q 1406 481 1766 481 
L 2356 481 
L 2356 0 
L 1766 0 
Q 1100 0 847 248 
Q 594 497 594 1153 
L 594 3053 
L 172 3053 
L 172 3500 
L 594 3500 
L 594 4494 
L 1172 4494 
z
" id="DejaVuSans-74" transform="scale(0.015625)"/>
       </defs>
       <use xlink:href="#DejaVuSans-74"/>
      </g>
     </g>
    </g>
    <g id="xtick_21">
     <g id="line2d_21">
      <g>
       <use style="stroke:#000000;stroke-width:0.8;" x="356.859073" xlink:href="#m86a139e7c1" y="317.72"/>
      </g>
     </g>
     <g id="text_21">
      <!-- u -->
      <g transform="translate(353.690323 332.318437)scale(0.1 -0.1)">
       <defs>
        <path d="M 544 1381 
L 544 3500 
L 1119 3500 
L 1119 1403 
Q 1119 906 1312 657 
Q 1506 409 1894 409 
Q 2359 409 2629 706 
Q 2900 1003 2900 1516 
L 2900 3500 
L 3475 3500 
L 3475 0 
L 2900 0 
L 2900 538 
Q 2691 219 2414 64 
Q 2138 -91 1772 -91 
Q 1169 -91 856 284 
Q 544 659 544 1381 
z
M 1991 3584 
L 1991 3584 
z
" id="DejaVuSans-75" transform="scale(0.015625)"/>
       </defs>
       <use xlink:href="#DejaVuSans-75"/>
      </g>
     </g>
    </g>
    <g id="xtick_22">
     <g id="line2d_22">
      <g>
       <use style="stroke:#000000;stroke-width:0.8;" x="370.83895" xlink:href="#m86a139e7c1" y="317.72"/>
      </g>
     </g>
     <g id="text_22">
      <!-- v -->
      <g transform="translate(367.879575 332.318437)scale(0.1 -0.1)">
       <defs>
        <path d="M 191 3500 
L 800 3500 
L 1894 563 
L 2988 3500 
L 3597 3500 
L 2284 0 
L 1503 0 
L 191 3500 
z
" id="DejaVuSans-76" transform="scale(0.015625)"/>
       </defs>
       <use xlink:href="#DejaVuSans-76"/>
      </g>
     </g>
    </g>
    <g id="xtick_23">
     <g id="line2d_23">
      <g>
       <use style="stroke:#000000;stroke-width:0.8;" x="384.818826" xlink:href="#m86a139e7c1" y="317.72"/>
      </g>
     </g>
     <g id="text_23">
      <!-- w -->
      <g transform="translate(380.729764 332.318437)scale(0.1 -0.1)">
       <defs>
        <path d="M 269 3500 
L 844 3500 
L 1563 769 
L 2278 3500 
L 2956 3500 
L 3675 769 
L 4391 3500 
L 4966 3500 
L 4050 0 
L 3372 0 
L 2619 2869 
L 1863 0 
L 1184 0 
L 269 3500 
z
" id="DejaVuSans-77" transform="scale(0.015625)"/>
       </defs>
       <use xlink:href="#DejaVuSans-77"/>
      </g>
     </g>
    </g>
    <g id="xtick_24">
     <g id="line2d_24">
      <g>
       <use style="stroke:#000000;stroke-width:0.8;" x="398.798703" xlink:href="#m86a139e7c1" y="317.72"/>
      </g>
     </g>
     <g id="text_24">
      <!-- x -->
      <g transform="translate(395.839328 332.318437)scale(0.1 -0.1)">
       <defs>
        <path d="M 3513 3500 
L 2247 1797 
L 3578 0 
L 2900 0 
L 1881 1375 
L 863 0 
L 184 0 
L 1544 1831 
L 300 3500 
L 978 3500 
L 1906 2253 
L 2834 3500 
L 3513 3500 
z
" id="DejaVuSans-78" transform="scale(0.015625)"/>
       </defs>
       <use xlink:href="#DejaVuSans-78"/>
      </g>
     </g>
    </g>
    <g id="xtick_25">
     <g id="line2d_25">
      <g>
       <use style="stroke:#000000;stroke-width:0.8;" x="412.778579" xlink:href="#m86a139e7c1" y="317.72"/>
      </g>
     </g>
     <g id="text_25">
      <!-- y -->
      <g transform="translate(409.819204 332.318437)scale(0.1 -0.1)">
       <defs>
        <path d="M 2059 -325 
Q 1816 -950 1584 -1140 
Q 1353 -1331 966 -1331 
L 506 -1331 
L 506 -850 
L 844 -850 
Q 1081 -850 1212 -737 
Q 1344 -625 1503 -206 
L 1606 56 
L 191 3500 
L 800 3500 
L 1894 763 
L 2988 3500 
L 3597 3500 
L 2059 -325 
z
" id="DejaVuSans-79" transform="scale(0.015625)"/>
       </defs>
       <use xlink:href="#DejaVuSans-79"/>
      </g>
     </g>
    </g>
    <g id="xtick_26">
     <g id="line2d_26">
      <g>
       <use style="stroke:#000000;stroke-width:0.8;" x="426.758455" xlink:href="#m86a139e7c1" y="317.72"/>
      </g>
     </g>
     <g id="text_26">
      <!-- z -->
      <g transform="translate(424.134237 332.318437)scale(0.1 -0.1)">
       <defs>
        <path d="M 353 3500 
L 3084 3500 
L 3084 2975 
L 922 459 
L 3084 459 
L 3084 0 
L 275 0 
L 275 525 
L 2438 3041 
L 353 3041 
L 353 3500 
z
" id="DejaVuSans-7a" transform="scale(0.015625)"/>
       </defs>
       <use xlink:href="#DejaVuSans-7a"/>
      </g>
     </g>
    </g>
   </g>
   <g id="matplotlib.axis_2">
    <g id="ytick_1">
     <g id="line2d_27">
      <defs>
       <path d="M 0 0 
L -3.5 0 
" id="m7908edcc22" style="stroke:#000000;stroke-width:0.8;"/>
      </defs>
      <g>
       <use style="stroke:#000000;stroke-width:0.8;" x="54.02" xlink:href="#m7908edcc22" y="317.72"/>
      </g>
     </g>
     <g id="text_27">
      <!-- 0.00 -->
      <g transform="translate(24.754375 321.519219)scale(0.1 -0.1)">
       <defs>
        <path d="M 2034 4250 
Q 1547 4250 1301 3770 
Q 1056 3291 1056 2328 
Q 1056 1369 1301 889 
Q 1547 409 2034 409 
Q 2525 409 2770 889 
Q 3016 1369 3016 2328 
Q 3016 3291 2770 3770 
Q 2525 4250 2034 4250 
z
M 2034 4750 
Q 2819 4750 3233 4129 
Q 3647 3509 3647 2328 
Q 3647 1150 3233 529 
Q 2819 -91 2034 -91 
Q 1250 -91 836 529 
Q 422 1150 422 2328 
Q 422 3509 836 4129 
Q 1250 4750 2034 4750 
z
" id="DejaVuSans-30" transform="scale(0.015625)"/>
        <path d="M 684 794 
L 1344 794 
L 1344 0 
L 684 0 
L 684 794 
z
" id="DejaVuSans-2e" transform="scale(0.015625)"/>
       </defs>
       <use xlink:href="#DejaVuSans-30"/>
       <use x="63.623047" xlink:href="#DejaVuSans-2e"/>
       <use x="95.410156" xlink:href="#DejaVuSans-30"/>
       <use x="159.033203" xlink:href="#DejaVuSans-30"/>
      </g>
     </g>
    </g>
    <g id="ytick_2">
     <g id="line2d_28">
      <g>
       <use style="stroke:#000000;stroke-width:0.8;" x="54.02" xlink:href="#m7908edcc22" y="274.736422"/>
      </g>
     </g>
     <g id="text_28">
      <!-- 0.02 -->
      <g transform="translate(24.754375 278.535641)scale(0.1 -0.1)">
       <defs>
        <path d="M 1228 531 
L 3431 531 
L 3431 0 
L 469 0 
L 469 531 
Q 828 903 1448 1529 
Q 2069 2156 2228 2338 
Q 2531 2678 2651 2914 
Q 2772 3150 2772 3378 
Q 2772 3750 2511 3984 
Q 2250 4219 1831 4219 
Q 1534 4219 1204 4116 
Q 875 4013 500 3803 
L 500 4441 
Q 881 4594 1212 4672 
Q 1544 4750 1819 4750 
Q 2544 4750 2975 4387 
Q 3406 4025 3406 3419 
Q 3406 3131 3298 2873 
Q 3191 2616 2906 2266 
Q 2828 2175 2409 1742 
Q 1991 1309 1228 531 
z
" id="DejaVuSans-32" transform="scale(0.015625)"/>
       </defs>
       <use xlink:href="#DejaVuSans-30"/>
       <use x="63.623047" xlink:href="#DejaVuSans-2e"/>
       <use x="95.410156" xlink:href="#DejaVuSans-30"/>
       <use x="159.033203" xlink:href="#DejaVuSans-32"/>
      </g>
     </g>
    </g>
    <g id="ytick_3">
     <g id="line2d_29">
      <g>
       <use style="stroke:#000000;stroke-width:0.8;" x="54.02" xlink:href="#m7908edcc22" y="231.752844"/>
      </g>
     </g>
     <g id="text_29">
      <!-- 0.04 -->
      <g transform="translate(24.754375 235.552062)scale(0.1 -0.1)">
       <defs>
        <path d="M 2419 4116 
L 825 1625 
L 2419 1625 
L 2419 4116 
z
M 2253 4666 
L 3047 4666 
L 3047 1625 
L 3713 1625 
L 3713 1100 
L 3047 1100 
L 3047 0 
L 2419 0 
L 2419 1100 
L 313 1100 
L 313 1709 
L 2253 4666 
z
" id="DejaVuSans-34" transform="scale(0.015625)"/>
       </defs>
       <use xlink:href="#DejaVuSans-30"/>
       <use x="63.623047" xlink:href="#DejaVuSans-2e"/>
       <use x="95.410156" xlink:href="#DejaVuSans-30"/>
       <use x="159.033203" xlink:href="#DejaVuSans-34"/>
      </g>
     </g>
    </g>
    <g id="ytick_4">
     <g id="line2d_30">
      <g>
       <use style="stroke:#000000;stroke-width:0.8;" x="54.02" xlink:href="#m7908edcc22" y="188.769265"/>
      </g>
     </g>
     <g id="text_30">
      <!-- 0.06 -->
      <g transform="translate(24.754375 192.568484)scale(0.1 -0.1)">
       <defs>
        <path d="M 2113 2584 
Q 1688 2584 1439 2293 
Q 1191 2003 1191 1497 
Q 1191 994 1439 701 
Q 1688 409 2113 409 
Q 2538 409 2786 701 
Q 3034 994 3034 1497 
Q 3034 2003 2786 2293 
Q 2538 2584 2113 2584 
z
M 3366 4563 
L 3366 3988 
Q 3128 4100 2886 4159 
Q 2644 4219 2406 4219 
Q 1781 4219 1451 3797 
Q 1122 3375 1075 2522 
Q 1259 2794 1537 2939 
Q 1816 3084 2150 3084 
Q 2853 3084 3261 2657 
Q 3669 2231 3669 1497 
Q 3669 778 3244 343 
Q 2819 -91 2113 -91 
Q 1303 -91 875 529 
Q 447 1150 447 2328 
Q 447 3434 972 4092 
Q 1497 4750 2381 4750 
Q 2619 4750 2861 4703 
Q 3103 4656 3366 4563 
z
" id="DejaVuSans-36" transform="scale(0.015625)"/>
       </defs>
       <use xlink:href="#DejaVuSans-30"/>
       <use x="63.623047" xlink:href="#DejaVuSans-2e"/>
       <use x="95.410156" xlink:href="#DejaVuSans-30"/>
       <use x="159.033203" xlink:href="#DejaVuSans-36"/>
      </g>
     </g>
    </g>
    <g id="ytick_5">
     <g id="line2d_31">
      <g>
       <use style="stroke:#000000;stroke-width:0.8;" x="54.02" xlink:href="#m7908edcc22" y="145.785687"/>
      </g>
     </g>
     <g id="text_31">
      <!-- 0.08 -->
      <g transform="translate(24.754375 149.584906)scale(0.1 -0.1)">
       <defs>
        <path d="M 2034 2216 
Q 1584 2216 1326 1975 
Q 1069 1734 1069 1313 
Q 1069 891 1326 650 
Q 1584 409 2034 409 
Q 2484 409 2743 651 
Q 3003 894 3003 1313 
Q 3003 1734 2745 1975 
Q 2488 2216 2034 2216 
z
M 1403 2484 
Q 997 2584 770 2862 
Q 544 3141 544 3541 
Q 544 4100 942 4425 
Q 1341 4750 2034 4750 
Q 2731 4750 3128 4425 
Q 3525 4100 3525 3541 
Q 3525 3141 3298 2862 
Q 3072 2584 2669 2484 
Q 3125 2378 3379 2068 
Q 3634 1759 3634 1313 
Q 3634 634 3220 271 
Q 2806 -91 2034 -91 
Q 1263 -91 848 271 
Q 434 634 434 1313 
Q 434 1759 690 2068 
Q 947 2378 1403 2484 
z
M 1172 3481 
Q 1172 3119 1398 2916 
Q 1625 2713 2034 2713 
Q 2441 2713 2670 2916 
Q 2900 3119 2900 3481 
Q 2900 3844 2670 4047 
Q 2441 4250 2034 4250 
Q 1625 4250 1398 4047 
Q 1172 3844 1172 3481 
z
" id="DejaVuSans-38" transform="scale(0.015625)"/>
       </defs>
       <use xlink:href="#DejaVuSans-30"/>
       <use x="63.623047" xlink:href="#DejaVuSans-2e"/>
       <use x="95.410156" xlink:href="#DejaVuSans-30"/>
       <use x="159.033203" xlink:href="#DejaVuSans-38"/>
      </g>
     </g>
    </g>
    <g id="ytick_6">
     <g id="line2d_32">
      <g>
       <use style="stroke:#000000;stroke-width:0.8;" x="54.02" xlink:href="#m7908edcc22" y="102.802109"/>
      </g>
     </g>
     <g id="text_32">
      <!-- 0.10 -->
      <g transform="translate(24.754375 106.601328)scale(0.1 -0.1)">
       <defs>
        <path d="M 794 531 
L 1825 531 
L 1825 4091 
L 703 3866 
L 703 4441 
L 1819 4666 
L 2450 4666 
L 2450 531 
L 3481 531 
L 3481 0 
L 794 0 
L 794 531 
z
" id="DejaVuSans-31" transform="scale(0.015625)"/>
       </defs>
       <use xlink:href="#DejaVuSans-30"/>
       <use x="63.623047" xlink:href="#DejaVuSans-2e"/>
       <use x="95.410156" xlink:href="#DejaVuSans-31"/>
       <use x="159.033203" xlink:href="#DejaVuSans-30"/>
      </g>
     </g>
    </g>
    <g id="ytick_7">
     <g id="line2d_33">
      <g>
       <use style="stroke:#000000;stroke-width:0.8;" x="54.02" xlink:href="#m7908edcc22" y="59.818531"/>
      </g>
     </g>
     <g id="text_33">
      <!-- 0.12 -->
      <g transform="translate(24.754375 63.61775)scale(0.1 -0.1)">
       <use xlink:href="#DejaVuSans-30"/>
       <use x="63.623047" xlink:href="#DejaVuSans-2e"/>
       <use x="95.410156" xlink:href="#DejaVuSans-31"/>
       <use x="159.033203" xlink:href="#DejaVuSans-32"/>
      </g>
     </g>
    </g>
    <g id="text_34">
     <!-- Scores -->
     <g transform="translate(18.674688 188.907031)rotate(-90)scale(0.1 -0.1)">
      <defs>
       <path d="M 3425 4513 
L 3425 3897 
Q 3066 4069 2747 4153 
Q 2428 4238 2131 4238 
Q 1616 4238 1336 4038 
Q 1056 3838 1056 3469 
Q 1056 3159 1242 3001 
Q 1428 2844 1947 2747 
L 2328 2669 
Q 3034 2534 3370 2195 
Q 3706 1856 3706 1288 
Q 3706 609 3251 259 
Q 2797 -91 1919 -91 
Q 1588 -91 1214 -16 
Q 841 59 441 206 
L 441 856 
Q 825 641 1194 531 
Q 1563 422 1919 422 
Q 2459 422 2753 634 
Q 3047 847 3047 1241 
Q 3047 1584 2836 1778 
Q 2625 1972 2144 2069 
L 1759 2144 
Q 1053 2284 737 2584 
Q 422 2884 422 3419 
Q 422 4038 858 4394 
Q 1294 4750 2059 4750 
Q 2388 4750 2728 4690 
Q 3069 4631 3425 4513 
z
" id="DejaVuSans-53" transform="scale(0.015625)"/>
      </defs>
      <use xlink:href="#DejaVuSans-53"/>
      <use x="63.476562" xlink:href="#DejaVuSans-63"/>
      <use x="118.457031" xlink:href="#DejaVuSans-6f"/>
      <use x="179.638672" xlink:href="#DejaVuSans-72"/>
      <use x="218.501953" xlink:href="#DejaVuSans-65"/>
      <use x="280.025391" xlink:href="#DejaVuSans-73"/>
     </g>
    </g>
   </g>
   <g id="patch_81">
    <path d="M 54.02 317.72 
L 54.02 26.88 
" style="fill:none;stroke:#000000;stroke-linecap:square;stroke-linejoin:miter;stroke-width:0.8;"/>
   </g>
   <g id="patch_82">
    <path d="M 450 317.72 
L 450 26.88 
" style="fill:none;stroke:#000000;stroke-linecap:square;stroke-linejoin:miter;stroke-width:0.8;"/>
   </g>
   <g id="patch_83">
    <path d="M 54.02 317.72 
L 450 317.72 
" style="fill:none;stroke:#000000;stroke-linecap:square;stroke-linejoin:miter;stroke-width:0.8;"/>
   </g>
   <g id="patch_84">
    <path d="M 54.02 26.88 
L 450 26.88 
" style="fill:none;stroke:#000000;stroke-linecap:square;stroke-linejoin:miter;stroke-width:0.8;"/>
   </g>
   <g id="text_35">
    <!-- Variation of the probability of appearance of each letter -->
    <g transform="translate(84.635313 20.88)scale(0.12 -0.12)">
     <defs>
      <path d="M 1831 0 
L 50 4666 
L 709 4666 
L 2188 738 
L 3669 4666 
L 4325 4666 
L 2547 0 
L 1831 0 
z
" id="DejaVuSans-56" transform="scale(0.015625)"/>
      <path id="DejaVuSans-20" transform="scale(0.015625)"/>
     </defs>
     <use xlink:href="#DejaVuSans-56"/>
     <use x="60.658203" xlink:href="#DejaVuSans-61"/>
     <use x="121.9375" xlink:href="#DejaVuSans-72"/>
     <use x="163.050781" xlink:href="#DejaVuSans-69"/>
     <use x="190.833984" xlink:href="#DejaVuSans-61"/>
     <use x="252.113281" xlink:href="#DejaVuSans-74"/>
     <use x="291.322266" xlink:href="#DejaVuSans-69"/>
     <use x="319.105469" xlink:href="#DejaVuSans-6f"/>
     <use x="380.287109" xlink:href="#DejaVuSans-6e"/>
     <use x="443.666016" xlink:href="#DejaVuSans-20"/>
     <use x="475.453125" xlink:href="#DejaVuSans-6f"/>
     <use x="536.634766" xlink:href="#DejaVuSans-66"/>
     <use x="571.839844" xlink:href="#DejaVuSans-20"/>
     <use x="603.626953" xlink:href="#DejaVuSans-74"/>
     <use x="642.835938" xlink:href="#DejaVuSans-68"/>
     <use x="706.214844" xlink:href="#DejaVuSans-65"/>
     <use x="767.738281" xlink:href="#DejaVuSans-20"/>
     <use x="799.525391" xlink:href="#DejaVuSans-70"/>
     <use x="863.001953" xlink:href="#DejaVuSans-72"/>
     <use x="901.865234" xlink:href="#DejaVuSans-6f"/>
     <use x="963.046875" xlink:href="#DejaVuSans-62"/>
     <use x="1026.523438" xlink:href="#DejaVuSans-61"/>
     <use x="1087.802734" xlink:href="#DejaVuSans-62"/>
     <use x="1151.279297" xlink:href="#DejaVuSans-69"/>
     <use x="1179.0625" xlink:href="#DejaVuSans-6c"/>
     <use x="1206.845703" xlink:href="#DejaVuSans-69"/>
     <use x="1234.628906" xlink:href="#DejaVuSans-74"/>
     <use x="1273.837891" xlink:href="#DejaVuSans-79"/>
     <use x="1333.017578" xlink:href="#DejaVuSans-20"/>
     <use x="1364.804688" xlink:href="#DejaVuSans-6f"/>
     <use x="1425.986328" xlink:href="#DejaVuSans-66"/>
     <use x="1461.191406" xlink:href="#DejaVuSans-20"/>
     <use x="1492.978516" xlink:href="#DejaVuSans-61"/>
     <use x="1554.257812" xlink:href="#DejaVuSans-70"/>
     <use x="1617.734375" xlink:href="#DejaVuSans-70"/>
     <use x="1681.210938" xlink:href="#DejaVuSans-65"/>
     <use x="1742.734375" xlink:href="#DejaVuSans-61"/>
     <use x="1804.013672" xlink:href="#DejaVuSans-72"/>
     <use x="1845.126953" xlink:href="#DejaVuSans-61"/>
     <use x="1906.40625" xlink:href="#DejaVuSans-6e"/>
     <use x="1969.785156" xlink:href="#DejaVuSans-63"/>
     <use x="2024.765625" xlink:href="#DejaVuSans-65"/>
     <use x="2086.289062" xlink:href="#DejaVuSans-20"/>
     <use x="2118.076172" xlink:href="#DejaVuSans-6f"/>
     <use x="2179.257812" xlink:href="#DejaVuSans-66"/>
     <use x="2214.462891" xlink:href="#DejaVuSans-20"/>
     <use x="2246.25" xlink:href="#DejaVuSans-65"/>
     <use x="2307.773438" xlink:href="#DejaVuSans-61"/>
     <use x="2369.052734" xlink:href="#DejaVuSans-63"/>
     <use x="2424.033203" xlink:href="#DejaVuSans-68"/>
     <use x="2487.412109" xlink:href="#DejaVuSans-20"/>
     <use x="2519.199219" xlink:href="#DejaVuSans-6c"/>
     <use x="2546.982422" xlink:href="#DejaVuSans-65"/>
     <use x="2608.505859" xlink:href="#DejaVuSans-74"/>
     <use x="2647.714844" xlink:href="#DejaVuSans-74"/>
     <use x="2686.923828" xlink:href="#DejaVuSans-65"/>
     <use x="2748.447266" xlink:href="#DejaVuSans-72"/>
    </g>
   </g>
   <g id="legend_1">
    <g id="patch_85">
     <path d="M 193.91 78.914375 
L 310.11 78.914375 
Q 312.11 78.914375 312.11 76.914375 
L 312.11 33.88 
Q 312.11 31.88 310.11 31.88 
L 193.91 31.88 
Q 191.91 31.88 191.91 33.88 
L 191.91 76.914375 
Q 191.91 78.914375 193.91 78.914375 
z
" style="fill:#ffffff;opacity:0.8;stroke:#cccccc;stroke-linejoin:miter;"/>
    </g>
    <g id="patch_86">
     <path d="M 195.91 43.478437 
L 215.91 43.478437 
L 215.91 36.478437 
L 195.91 36.478437 
z
" style="fill:#1f77b4;"/>
    </g>
    <g id="text_36">
     <!-- Initial probability -->
     <g transform="translate(223.91 43.478437)scale(0.1 -0.1)">
      <defs>
       <path d="M 628 4666 
L 1259 4666 
L 1259 0 
L 628 0 
L 628 4666 
z
" id="DejaVuSans-49" transform="scale(0.015625)"/>
      </defs>
      <use xlink:href="#DejaVuSans-49"/>
      <use x="29.492188" xlink:href="#DejaVuSans-6e"/>
      <use x="92.871094" xlink:href="#DejaVuSans-69"/>
      <use x="120.654297" xlink:href="#DejaVuSans-74"/>
      <use x="159.863281" xlink:href="#DejaVuSans-69"/>
      <use x="187.646484" xlink:href="#DejaVuSans-61"/>
      <use x="248.925781" xlink:href="#DejaVuSans-6c"/>
      <use x="276.708984" xlink:href="#DejaVuSans-20"/>
      <use x="308.496094" xlink:href="#DejaVuSans-70"/>
      <use x="371.972656" xlink:href="#DejaVuSans-72"/>
      <use x="410.835938" xlink:href="#DejaVuSans-6f"/>
      <use x="472.017578" xlink:href="#DejaVuSans-62"/>
      <use x="535.494141" xlink:href="#DejaVuSans-61"/>
      <use x="596.773438" xlink:href="#DejaVuSans-62"/>
      <use x="660.25" xlink:href="#DejaVuSans-69"/>
      <use x="688.033203" xlink:href="#DejaVuSans-6c"/>
      <use x="715.816406" xlink:href="#DejaVuSans-69"/>
      <use x="743.599609" xlink:href="#DejaVuSans-74"/>
      <use x="782.808594" xlink:href="#DejaVuSans-79"/>
     </g>
    </g>
    <g id="patch_87">
     <path d="M 195.91 58.156563 
L 215.91 58.156563 
L 215.91 51.156563 
L 195.91 51.156563 
z
" style="fill:#ff7f0e;"/>
    </g>
    <g id="text_37">
     <!-- After "z" -->
     <g transform="translate(223.91 58.156563)scale(0.1 -0.1)">
      <defs>
       <path d="M 2188 4044 
L 1331 1722 
L 3047 1722 
L 2188 4044 
z
M 1831 4666 
L 2547 4666 
L 4325 0 
L 3669 0 
L 3244 1197 
L 1141 1197 
L 716 0 
L 50 0 
L 1831 4666 
z
" id="DejaVuSans-41" transform="scale(0.015625)"/>
       <path d="M 1147 4666 
L 1147 2931 
L 616 2931 
L 616 4666 
L 1147 4666 
z
M 2328 4666 
L 2328 2931 
L 1797 2931 
L 1797 4666 
L 2328 4666 
z
" id="DejaVuSans-22" transform="scale(0.015625)"/>
      </defs>
      <use xlink:href="#DejaVuSans-41"/>
      <use x="64.783203" xlink:href="#DejaVuSans-66"/>
      <use x="98.238281" xlink:href="#DejaVuSans-74"/>
      <use x="137.447266" xlink:href="#DejaVuSans-65"/>
      <use x="198.970703" xlink:href="#DejaVuSans-72"/>
      <use x="240.083984" xlink:href="#DejaVuSans-20"/>
      <use x="271.871094" xlink:href="#DejaVuSans-22"/>
      <use x="317.867188" xlink:href="#DejaVuSans-7a"/>
      <use x="370.357422" xlink:href="#DejaVuSans-22"/>
     </g>
    </g>
    <g id="patch_88">
     <path d="M 195.91 72.834687 
L 215.91 72.834687 
L 215.91 65.834687 
L 195.91 65.834687 
z
" style="fill:#2ca02c;"/>
    </g>
    <g id="text_38">
     <!-- After "zh" -->
     <g transform="translate(223.91 72.834687)scale(0.1 -0.1)">
      <use xlink:href="#DejaVuSans-41"/>
      <use x="64.783203" xlink:href="#DejaVuSans-66"/>
      <use x="98.238281" xlink:href="#DejaVuSans-74"/>
      <use x="137.447266" xlink:href="#DejaVuSans-65"/>
      <use x="198.970703" xlink:href="#DejaVuSans-72"/>
      <use x="240.083984" xlink:href="#DejaVuSans-20"/>
      <use x="271.871094" xlink:href="#DejaVuSans-22"/>
      <use x="317.867188" xlink:href="#DejaVuSans-7a"/>
      <use x="370.357422" xlink:href="#DejaVuSans-68"/>
      <use x="433.736328" xlink:href="#DejaVuSans-22"/>
     </g>
    </g>
   </g>
  </g>
 </g>
 <defs>
  <clipPath id="p69f375f1b7">
   <rect height="290.84" width="395.98" x="54.02" y="26.88"/>
  </clipPath>
 </defs>
</svg>
